<?plantuml 1.2026.2?><svg xmlns="http://www.w3.org/2000/svg" xmlns:xlink="http://www.w3.org/1999/xlink" contentStyleType="text/css" data-diagram-type="ACTIVITY" height="603px" preserveAspectRatio="none" style="background:#FFFFFF;width:1554px;height:603px;" version="1.1" viewBox="0 0 1554 603" width="1554px" zoomAndPan="magnify"><title>Bring-up &#25490;&#26597;&#27969;&#31243;&#22270;</title><defs/><g><g class="title" data-source-line="1"><text fill="#000000" font-family="PingFang SC" font-size="14" font-weight="bold" lengthAdjust="spacing" textLength="135.016" x="708.376" y="34.84">Bring-up &#25490;&#26597;&#27969;&#31243;&#22270;</text></g><ellipse cx="1298.168" cy="60.6" fill="#222222" rx="10" ry="10" style="stroke:#222222;stroke-width:1;"/><rect fill="#F1F1F1" height="36.8" rx="12.5" ry="12.5" style="stroke:#181818;stroke-width:0.5;" width="148.424" x="1223.956" y="90.6"/><text fill="#000000" font-family="PingFang SC" font-size="12" lengthAdjust="spacing" textLength="128.424" x="1233.956" y="113.32">&#30830;&#35748; ESP-IDF &#29615;&#22659;&#21487;&#29992;</text><polygon fill="#F1F1F1" points="1262.7975,147.4,1333.5385,147.4,1345.5385,159.4,1333.5385,171.4,1262.7975,171.4,1250.7975,159.4,1262.7975,147.4" style="stroke:#181818;stroke-width:0.5;"/><text fill="#000000" font-family="PingFang SC" font-size="11" lengthAdjust="spacing" textLength="70.741" x="1262.7975" y="163.36">idf.py &#21487;&#25191;&#34892;?</text><text fill="#000000" font-family="PingFang SC" font-size="11" lengthAdjust="spacing" textLength="11" x="1239.7975" y="155.66">&#26159;</text><text fill="#000000" font-family="PingFang SC" font-size="11" lengthAdjust="spacing" textLength="11" x="1345.5385" y="155.66">&#21542;</text><rect fill="#F1F1F1" height="36.8" rx="12.5" ry="12.5" style="stroke:#181818;stroke-width:0.5;" width="92.828" x="1066.3341" y="181.4"/><text fill="#000000" font-family="PingFang SC" font-size="12" lengthAdjust="spacing" textLength="72.828" x="1076.3341" y="204.12">&#32534;&#35793; P4 / C5</text><polygon fill="#F1F1F1" points="1087.7946,238.2,1137.7016,238.2,1149.7016,250.2,1137.7016,262.2,1087.7946,262.2,1075.7946,250.2,1087.7946,238.2" style="stroke:#181818;stroke-width:0.5;"/><text fill="#000000" font-family="PingFang SC" font-size="11" lengthAdjust="spacing" textLength="49.907" x="1087.7946" y="254.16">&#32534;&#35793;&#36890;&#36807;?</text><text fill="#000000" font-family="PingFang SC" font-size="11" lengthAdjust="spacing" textLength="11" x="1064.7946" y="246.46">&#26159;</text><text fill="#000000" font-family="PingFang SC" font-size="11" lengthAdjust="spacing" textLength="11" x="1149.7016" y="246.46">&#21542;</text><rect fill="#F1F1F1" height="36.8" rx="12.5" ry="12.5" style="stroke:#181818;stroke-width:0.5;" width="68" x="884.8622" y="272.2"/><text fill="#000000" font-family="PingFang SC" font-size="12" lengthAdjust="spacing" textLength="48" x="894.8622" y="294.92">&#28903;&#24405;&#35774;&#22791;</text><polygon fill="#F1F1F1" points="879.7462,329,957.9782,329,969.9782,341,957.9782,353,879.7462,353,867.7462,341,879.7462,329" style="stroke:#181818;stroke-width:0.5;"/><text fill="#000000" font-family="PingFang SC" font-size="11" lengthAdjust="spacing" textLength="78.232" x="879.7462" y="344.96">P4 &#25511;&#21046;&#21488;&#21487;&#29992;?</text><text fill="#000000" font-family="PingFang SC" font-size="11" lengthAdjust="spacing" textLength="11" x="856.7462" y="337.26">&#26159;</text><text fill="#000000" font-family="PingFang SC" font-size="11" lengthAdjust="spacing" textLength="11" x="969.9782" y="337.26">&#21542;</text><polygon fill="#F1F1F1" points="674.5615,363,786.7395,363,798.7395,375,786.7395,387,674.5615,387,662.5615,375,674.5615,363" style="stroke:#181818;stroke-width:0.5;"/><text fill="#000000" font-family="PingFang SC" font-size="11" lengthAdjust="spacing" textLength="112.178" x="674.5615" y="378.96">C5 &#21327;&#22788;&#29702;&#22120;&#21551;&#21160;&#27491;&#24120;?</text><text fill="#000000" font-family="PingFang SC" font-size="11" lengthAdjust="spacing" textLength="11" x="651.5615" y="371.26">&#26159;</text><text fill="#000000" font-family="PingFang SC" font-size="11" lengthAdjust="spacing" textLength="11" x="798.7395" y="371.26">&#21542;</text><polygon fill="#F1F1F1" points="502.046,397,562.48,397,574.48,409,562.48,421,502.046,421,490.046,409,502.046,397" style="stroke:#181818;stroke-width:0.5;"/><text fill="#000000" font-family="PingFang SC" font-size="11" lengthAdjust="spacing" textLength="60.434" x="502.046" y="412.96">Wi-Fi &#36830;&#36890;?</text><text fill="#000000" font-family="PingFang SC" font-size="11" lengthAdjust="spacing" textLength="11" x="479.046" y="405.26">&#26159;</text><text fill="#000000" font-family="PingFang SC" font-size="11" lengthAdjust="spacing" textLength="11" x="574.48" y="405.26">&#21542;</text><polygon fill="#F1F1F1" points="271.4285,431,365.3355,431,377.3355,443,365.3355,455,271.4285,455,259.4285,443,271.4285,431" style="stroke:#181818;stroke-width:0.5;"/><text fill="#000000" font-family="PingFang SC" font-size="11" lengthAdjust="spacing" textLength="93.907" x="271.4285" y="446.96">&#40664;&#35748;&#26725;&#25509;&#31471;&#21475;&#21487;&#36798;?</text><text fill="#000000" font-family="PingFang SC" font-size="11" lengthAdjust="spacing" textLength="11" x="248.4285" y="439.26">&#26159;</text><text fill="#000000" font-family="PingFang SC" font-size="11" lengthAdjust="spacing" textLength="11" x="377.3355" y="439.26">&#21542;</text><polygon fill="#F1F1F1" points="107.406,465,179.302,465,191.302,477,179.302,489,107.406,489,95.406,477,107.406,465" style="stroke:#181818;stroke-width:0.5;"/><text fill="#000000" font-family="PingFang SC" font-size="11" lengthAdjust="spacing" textLength="71.896" x="107.406" y="480.96">UART &#24050;&#21551;&#29992;?</text><text fill="#000000" font-family="PingFang SC" font-size="11" lengthAdjust="spacing" textLength="11" x="84.406" y="473.26">&#26159;</text><text fill="#000000" font-family="PingFang SC" font-size="11" lengthAdjust="spacing" textLength="11" x="191.302" y="473.26">&#21542;</text><rect fill="#F1F1F1" height="36.8" rx="12.5" ry="12.5" style="stroke:#181818;stroke-width:0.5;" width="104" x="11" y="499"/><text fill="#000000" font-family="PingFang SC" font-size="12" lengthAdjust="spacing" textLength="84" x="21" y="521.72">&#26816;&#26597;&#31471;&#21040;&#31471;&#28040;&#24687;</text><ellipse cx="63" cy="581.8" fill="none" rx="11" ry="11" style="stroke:#222222;stroke-width:1;"/><ellipse cx="63" cy="581.8" fill="#222222" rx="6" ry="6" style="stroke:#222222;stroke-width:1;"/><rect fill="#F1F1F1" height="36.8" rx="12.5" ry="12.5" style="stroke:#181818;stroke-width:0.5;" width="177.416" x="135" y="499"/><text fill="#000000" font-family="PingFang SC" font-size="12" lengthAdjust="spacing" textLength="157.416" x="145" y="521.72">&#22238;&#26597; uart_en / &#27874;&#29305;&#29575; / &#25509;&#32447;</text><ellipse cx="223.708" cy="581.8" fill="none" rx="11" ry="11" style="stroke:#222222;stroke-width:1;"/><ellipse cx="223.708" cy="581.8" fill="#222222" rx="6" ry="6" style="stroke:#222222;stroke-width:1;"/><rect fill="#F1F1F1" height="36.8" rx="12.5" ry="12.5" style="stroke:#181818;stroke-width:0.5;" width="301.988" x="342.416" y="465"/><text fill="#000000" font-family="PingFang SC" font-size="12" lengthAdjust="spacing" textLength="281.988" x="352.416" y="487.72">&#22238;&#26597;&#26412;&#22320; IP / UDP 8888 / TCP 8889 / bridge &#26085;&#24535;</text><ellipse cx="493.41" cy="547.8" fill="none" rx="11" ry="11" style="stroke:#222222;stroke-width:1;"/><ellipse cx="493.41" cy="547.8" fill="#222222" rx="6" ry="6" style="stroke:#222222;stroke-width:1;"/><rect fill="#F1F1F1" height="36.8" rx="12.5" ry="12.5" style="stroke:#181818;stroke-width:0.5;" width="143.48" x="674.404" y="431"/><text fill="#000000" font-family="PingFang SC" font-size="12" lengthAdjust="spacing" textLength="123.48" x="684.404" y="453.72">&#22238;&#26597; Wi-Fi &#37197;&#32622;&#19982;&#28909;&#28857;</text><ellipse cx="746.144" cy="513.8" fill="none" rx="11" ry="11" style="stroke:#222222;stroke-width:1;"/><ellipse cx="746.144" cy="513.8" fill="#222222" rx="6" ry="6" style="stroke:#222222;stroke-width:1;"/><rect fill="#F1F1F1" height="36.8" rx="12.5" ry="12.5" style="stroke:#181818;stroke-width:0.5;" width="162.308" x="827.884" y="397"/><text fill="#000000" font-family="PingFang SC" font-size="12" lengthAdjust="spacing" textLength="142.308" x="837.884" y="419.72">&#22238;&#26597; C5 &#26085;&#24535;&#19982; sdkconfig</text><ellipse cx="909.038" cy="479.8" fill="none" rx="11" ry="11" style="stroke:#222222;stroke-width:1;"/><ellipse cx="909.038" cy="479.8" fill="#222222" rx="6" ry="6" style="stroke:#222222;stroke-width:1;"/><rect fill="#F1F1F1" height="36.8" rx="12.5" ry="12.5" style="stroke:#181818;stroke-width:0.5;" width="213.764" x="1000.192" y="363"/><text fill="#000000" font-family="PingFang SC" font-size="12" lengthAdjust="spacing" textLength="193.764" x="1010.192" y="385.72">&#22238;&#26597; P4 &#21551;&#21160;&#26085;&#24535;&#19982; console &#21021;&#22987;&#21270;</text><ellipse cx="1107.074" cy="445.8" fill="none" rx="11" ry="11" style="stroke:#222222;stroke-width:1;"/><ellipse cx="1107.074" cy="445.8" fill="#222222" rx="6" ry="6" style="stroke:#222222;stroke-width:1;"/><rect fill="#F1F1F1" height="36.8" rx="12.5" ry="12.5" style="stroke:#181818;stroke-width:0.5;" width="165.356" x="1231.9879" y="272.2"/><text fill="#000000" font-family="PingFang SC" font-size="12" lengthAdjust="spacing" textLength="145.356" x="1241.9879" y="294.92">&#22238;&#26597;&#24037;&#20855;&#38142;&#12289;target &#21644;&#37197;&#32622;</text><ellipse cx="1314.6659" cy="340" fill="none" rx="11" ry="11" style="stroke:#222222;stroke-width:1;"/><ellipse cx="1314.6659" cy="340" fill="#222222" rx="6" ry="6" style="stroke:#222222;stroke-width:1;"/><rect fill="#F1F1F1" height="36.8" rx="12.5" ry="12.5" style="stroke:#181818;stroke-width:0.5;" width="136.424" x="1407.3439" y="181.4"/><text fill="#000000" font-family="PingFang SC" font-size="12" lengthAdjust="spacing" textLength="116.424" x="1417.3439" y="204.12">&#20808;&#21152;&#36733; ESP-IDF &#29615;&#22659;</text><ellipse cx="1475.5559" cy="249.2" fill="none" rx="11" ry="11" style="stroke:#222222;stroke-width:1;"/><ellipse cx="1475.5559" cy="249.2" fill="#222222" rx="6" ry="6" style="stroke:#222222;stroke-width:1;"/><line style="stroke:#181818;stroke-width:1;" x1="1298.168" x2="1298.168" y1="70.6" y2="90.6"/><polygon fill="#181818" points="1294.168,80.6,1298.168,90.6,1302.168,80.6,1298.168,84.6" style="stroke:#181818;stroke-width:1;"/><line style="stroke:#181818;stroke-width:1;" x1="63" x2="63" y1="535.8" y2="570.8"/><polygon fill="#181818" points="59,560.8,63,570.8,67,560.8,63,564.8" style="stroke:#181818;stroke-width:1;"/><line style="stroke:#181818;stroke-width:1;" x1="223.708" x2="223.708" y1="535.8" y2="570.8"/><polygon fill="#181818" points="219.708,560.8,223.708,570.8,227.708,560.8,223.708,564.8" style="stroke:#181818;stroke-width:1;"/><line style="stroke:#181818;stroke-width:1;" x1="95.406" x2="63" y1="477" y2="477"/><line style="stroke:#181818;stroke-width:1;" x1="63" x2="63" y1="477" y2="499"/><polygon fill="#181818" points="59,489,63,499,67,489,63,493" style="stroke:#181818;stroke-width:1;"/><line style="stroke:#181818;stroke-width:1;" x1="191.302" x2="223.708" y1="477" y2="477"/><line style="stroke:#181818;stroke-width:1;" x1="223.708" x2="223.708" y1="477" y2="499"/><polygon fill="#181818" points="219.708,489,223.708,499,227.708,489,223.708,493" style="stroke:#181818;stroke-width:1;"/><line style="stroke:#181818;stroke-width:1;" x1="493.41" x2="493.41" y1="501.8" y2="536.8"/><polygon fill="#181818" points="489.41,526.8,493.41,536.8,497.41,526.8,493.41,530.8" style="stroke:#181818;stroke-width:1;"/><line style="stroke:#181818;stroke-width:1;" x1="259.4285" x2="143.354" y1="443" y2="443"/><line style="stroke:#181818;stroke-width:1;" x1="143.354" x2="143.354" y1="443" y2="465"/><polygon fill="#181818" points="139.354,455,143.354,465,147.354,455,143.354,459" style="stroke:#181818;stroke-width:1;"/><line style="stroke:#181818;stroke-width:1;" x1="377.3355" x2="493.41" y1="443" y2="443"/><line style="stroke:#181818;stroke-width:1;" x1="493.41" x2="493.41" y1="443" y2="465"/><polygon fill="#181818" points="489.41,455,493.41,465,497.41,455,493.41,459" style="stroke:#181818;stroke-width:1;"/><line style="stroke:#181818;stroke-width:1;" x1="746.144" x2="746.144" y1="467.8" y2="502.8"/><polygon fill="#181818" points="742.144,492.8,746.144,502.8,750.144,492.8,746.144,496.8" style="stroke:#181818;stroke-width:1;"/><line style="stroke:#181818;stroke-width:1;" x1="490.046" x2="318.382" y1="409" y2="409"/><line style="stroke:#181818;stroke-width:1;" x1="318.382" x2="318.382" y1="409" y2="431"/><polygon fill="#181818" points="314.382,421,318.382,431,322.382,421,318.382,425" style="stroke:#181818;stroke-width:1;"/><line style="stroke:#181818;stroke-width:1;" x1="574.48" x2="746.144" y1="409" y2="409"/><line style="stroke:#181818;stroke-width:1;" x1="746.144" x2="746.144" y1="409" y2="431"/><polygon fill="#181818" points="742.144,421,746.144,431,750.144,421,746.144,425" style="stroke:#181818;stroke-width:1;"/><line style="stroke:#181818;stroke-width:1;" x1="909.038" x2="909.038" y1="433.8" y2="468.8"/><polygon fill="#181818" points="905.038,458.8,909.038,468.8,913.038,458.8,909.038,462.8" style="stroke:#181818;stroke-width:1;"/><line style="stroke:#181818;stroke-width:1;" x1="662.5615" x2="532.263" y1="375" y2="375"/><line style="stroke:#181818;stroke-width:1;" x1="532.263" x2="532.263" y1="375" y2="397"/><polygon fill="#181818" points="528.263,387,532.263,397,536.263,387,532.263,391" style="stroke:#181818;stroke-width:1;"/><line style="stroke:#181818;stroke-width:1;" x1="798.7395" x2="909.038" y1="375" y2="375"/><line style="stroke:#181818;stroke-width:1;" x1="909.038" x2="909.038" y1="375" y2="397"/><polygon fill="#181818" points="905.038,387,909.038,397,913.038,387,909.038,391" style="stroke:#181818;stroke-width:1;"/><line style="stroke:#181818;stroke-width:1;" x1="1107.074" x2="1107.074" y1="399.8" y2="434.8"/><polygon fill="#181818" points="1103.074,424.8,1107.074,434.8,1111.074,424.8,1107.074,428.8" style="stroke:#181818;stroke-width:1;"/><line style="stroke:#181818;stroke-width:1;" x1="867.7462" x2="730.6505" y1="341" y2="341"/><line style="stroke:#181818;stroke-width:1;" x1="730.6505" x2="730.6505" y1="341" y2="363"/><polygon fill="#181818" points="726.6505,353,730.6505,363,734.6505,353,730.6505,357" style="stroke:#181818;stroke-width:1;"/><line style="stroke:#181818;stroke-width:1;" x1="969.9782" x2="1107.074" y1="341" y2="341"/><line style="stroke:#181818;stroke-width:1;" x1="1107.074" x2="1107.074" y1="341" y2="363"/><polygon fill="#181818" points="1103.074,353,1107.074,363,1111.074,353,1107.074,357" style="stroke:#181818;stroke-width:1;"/><line style="stroke:#181818;stroke-width:1;" x1="918.8622" x2="918.8622" y1="309" y2="329"/><polygon fill="#181818" points="914.8622,319,918.8622,329,922.8622,319,918.8622,323" style="stroke:#181818;stroke-width:1;"/><line style="stroke:#181818;stroke-width:1;" x1="1314.6659" x2="1314.6659" y1="309" y2="329"/><polygon fill="#181818" points="1310.6659,319,1314.6659,329,1318.6659,319,1314.6659,323" style="stroke:#181818;stroke-width:1;"/><line style="stroke:#181818;stroke-width:1;" x1="1075.7946" x2="918.8622" y1="250.2" y2="250.2"/><line style="stroke:#181818;stroke-width:1;" x1="918.8622" x2="918.8622" y1="250.2" y2="272.2"/><polygon fill="#181818" points="914.8622,262.2,918.8622,272.2,922.8622,262.2,918.8622,266.2" style="stroke:#181818;stroke-width:1;"/><line style="stroke:#181818;stroke-width:1;" x1="1149.7016" x2="1314.6659" y1="250.2" y2="250.2"/><line style="stroke:#181818;stroke-width:1;" x1="1314.6659" x2="1314.6659" y1="250.2" y2="272.2"/><polygon fill="#181818" points="1310.6659,262.2,1314.6659,272.2,1318.6659,262.2,1314.6659,266.2" style="stroke:#181818;stroke-width:1;"/><line style="stroke:#181818;stroke-width:1;" x1="1112.7481" x2="1112.7481" y1="218.2" y2="238.2"/><polygon fill="#181818" points="1108.7481,228.2,1112.7481,238.2,1116.7481,228.2,1112.7481,232.2" style="stroke:#181818;stroke-width:1;"/><line style="stroke:#181818;stroke-width:1;" x1="1475.5559" x2="1475.5559" y1="218.2" y2="238.2"/><polygon fill="#181818" points="1471.5559,228.2,1475.5559,238.2,1479.5559,228.2,1475.5559,232.2" style="stroke:#181818;stroke-width:1;"/><line style="stroke:#181818;stroke-width:1;" x1="1250.7975" x2="1112.7481" y1="159.4" y2="159.4"/><line style="stroke:#181818;stroke-width:1;" x1="1112.7481" x2="1112.7481" y1="159.4" y2="181.4"/><polygon fill="#181818" points="1108.7481,171.4,1112.7481,181.4,1116.7481,171.4,1112.7481,175.4" style="stroke:#181818;stroke-width:1;"/><line style="stroke:#181818;stroke-width:1;" x1="1345.5385" x2="1475.5559" y1="159.4" y2="159.4"/><line style="stroke:#181818;stroke-width:1;" x1="1475.5559" x2="1475.5559" y1="159.4" y2="181.4"/><polygon fill="#181818" points="1471.5559,171.4,1475.5559,181.4,1479.5559,171.4,1475.5559,175.4" style="stroke:#181818;stroke-width:1;"/><line style="stroke:#181818;stroke-width:1;" x1="1298.168" x2="1298.168" y1="127.4" y2="147.4"/><polygon fill="#181818" points="1294.168,137.4,1298.168,147.4,1302.168,137.4,1298.168,141.4" style="stroke:#181818;stroke-width:1;"/><?plantuml-src XPDDRr9158RtzrSSTtH1kx69mi9OQfFkYBPnsMYvu4GA12uBTo0YjAKNhFP3MwiK418jbsWiL0L-Z9wPox_mN8RRyjLq5fEJa_C-xvavCnhJWYeiH5aeu8n7WEkx_5E5_qoAsZOUTPHRBBGUZFjKMDEUgHlgB8jl11KbfZs9QefB5EjclGmF7dcToujB87G3JrEODyIxcbjXVd0mdtysyW8enJUhPZ5tRmO84m87FpHc502N-BDl6c_0Unlcm3FlffGbazbUueFPpOnBB56gYkqzizx1SiRTJraYOd2zYjbpp3Ta3vDIMUcP1zp9O_cLABp6zpKi6BXLusSbRBMcIQJeCNCkCJ2x9zJMz2fPr_jzI7V2YnMkLyHN0_CbQiRiTAxJIDNg_OShWCtlrCirZTlBnKi9cf25pZPev-TPdZJSOrKnBHmPIQd1c0eEB7oPuE7H2V4WJXDT8yyvu3zEnUQ5q3DMJ8VurRsP7l8nltAZsy2B7t_3umOiUybWTT4BTsXHkEBfXtSfV1fble0A_A22tODHzp7lKUUfllO9vGHxwHtHhlzhwI9r9bvU3CD7qCFWALWRIcz9Tab4YFcUhuT3VXQueWunhuWJF9j6RtZm6Y-P18o5wOTYzYDMjp6tRxCloJPtZ3fWOhE2wMRlRUTl8ac_Dg1gWBivUGiIDG19p0Z4XUaiRdqss-snFsu9-xA-w3y0?></g></svg>