<?plantuml 1.2026.2?><svg xmlns="http://www.w3.org/2000/svg" xmlns:xlink="http://www.w3.org/1999/xlink" contentStyleType="text/css" data-diagram-type="ACTIVITY" height="603px" preserveAspectRatio="none" style="width:1481px;height:603px;" version="1.1" viewBox="0 0 1481 603" width="1481px" zoomAndPan="magnify"><title>Bring-up &#25490;&#26597;&#27969;&#31243;&#22270;</title><defs/><g><g class="title" data-source-line="1"><text fill="#000000" font-family="PingFang SC" font-size="14" font-weight="bold" lengthAdjust="spacing" textLength="135.016" x="671.5033" y="34.84">Bring-up &#25490;&#26597;&#27969;&#31243;&#22270;</text></g><ellipse cx="1225.99" cy="60.6" fill="#222222" rx="10" ry="10" style="stroke:#222222;stroke-width:1;"/><rect fill="#F1F1F1" height="36.8" rx="12.5" ry="12.5" style="stroke:#181818;stroke-width:0.5;" width="148.424" x="1151.778" y="90.6"/><text fill="#000000" font-family="PingFang SC" font-size="12" lengthAdjust="spacing" textLength="128.424" x="1161.778" y="113.32">&#30830;&#35748; ESP-IDF &#29615;&#22659;&#21487;&#29992;</text><polygon fill="#F1F1F1" points="1190.6195,147.4,1261.3605,147.4,1273.3605,159.4,1261.3605,171.4,1190.6195,171.4,1178.6195,159.4,1190.6195,147.4" style="stroke:#181818;stroke-width:0.5;"/><text fill="#000000" font-family="PingFang SC" font-size="11" lengthAdjust="spacing" textLength="70.741" x="1190.6195" y="163.36">idf.py &#21487;&#25191;&#34892;?</text><text fill="#000000" font-family="PingFang SC" font-size="11" lengthAdjust="spacing" textLength="11" x="1167.6195" y="155.66">&#26159;</text><text fill="#000000" font-family="PingFang SC" font-size="11" lengthAdjust="spacing" textLength="11" x="1273.3605" y="155.66">&#21542;</text><rect fill="#F1F1F1" height="36.8" rx="12.5" ry="12.5" style="stroke:#181818;stroke-width:0.5;" width="92.828" x="997.291" y="181.4"/><text fill="#000000" font-family="PingFang SC" font-size="12" lengthAdjust="spacing" textLength="72.828" x="1007.291" y="204.12">&#32534;&#35793; P4 / C5</text><polygon fill="#F1F1F1" points="1018.7515,238.2,1068.6585,238.2,1080.6585,250.2,1068.6585,262.2,1018.7515,262.2,1006.7515,250.2,1018.7515,238.2" style="stroke:#181818;stroke-width:0.5;"/><text fill="#000000" font-family="PingFang SC" font-size="11" lengthAdjust="spacing" textLength="49.907" x="1018.7515" y="254.16">&#32534;&#35793;&#36890;&#36807;?</text><text fill="#000000" font-family="PingFang SC" font-size="11" lengthAdjust="spacing" textLength="11" x="995.7515" y="246.46">&#26159;</text><text fill="#000000" font-family="PingFang SC" font-size="11" lengthAdjust="spacing" textLength="11" x="1080.6585" y="246.46">&#21542;</text><rect fill="#F1F1F1" height="36.8" rx="12.5" ry="12.5" style="stroke:#181818;stroke-width:0.5;" width="68" x="818.9539" y="272.2"/><text fill="#000000" font-family="PingFang SC" font-size="12" lengthAdjust="spacing" textLength="48" x="828.9539" y="294.92">&#28903;&#24405;&#35774;&#22791;</text><polygon fill="#F1F1F1" points="813.8379,329,892.0699,329,904.0699,341,892.0699,353,813.8379,353,801.8379,341,813.8379,329" style="stroke:#181818;stroke-width:0.5;"/><text fill="#000000" font-family="PingFang SC" font-size="11" lengthAdjust="spacing" textLength="78.232" x="813.8379" y="344.96">P4 &#25511;&#21046;&#21488;&#21487;&#29992;?</text><text fill="#000000" font-family="PingFang SC" font-size="11" lengthAdjust="spacing" textLength="11" x="790.8379" y="337.26">&#26159;</text><text fill="#000000" font-family="PingFang SC" font-size="11" lengthAdjust="spacing" textLength="11" x="904.0699" y="337.26">&#21542;</text><polygon fill="#F1F1F1" points="610.528,363,722.706,363,734.706,375,722.706,387,610.528,387,598.528,375,610.528,363" style="stroke:#181818;stroke-width:0.5;"/><text fill="#000000" font-family="PingFang SC" font-size="11" lengthAdjust="spacing" textLength="112.178" x="610.528" y="378.96">C5 &#21327;&#22788;&#29702;&#22120;&#21551;&#21160;&#27491;&#24120;?</text><text fill="#000000" font-family="PingFang SC" font-size="11" lengthAdjust="spacing" textLength="11" x="587.528" y="371.26">&#26159;</text><text fill="#000000" font-family="PingFang SC" font-size="11" lengthAdjust="spacing" textLength="11" x="734.706" y="371.26">&#21542;</text><polygon fill="#F1F1F1" points="460.2485,397,520.6825,397,532.6825,409,520.6825,421,460.2485,421,448.2485,409,460.2485,397" style="stroke:#181818;stroke-width:0.5;"/><text fill="#000000" font-family="PingFang SC" font-size="11" lengthAdjust="spacing" textLength="60.434" x="460.2485" y="412.96">Wi-Fi &#36830;&#36890;?</text><text fill="#000000" font-family="PingFang SC" font-size="11" lengthAdjust="spacing" textLength="11" x="437.2485" y="405.26">&#26159;</text><text fill="#000000" font-family="PingFang SC" font-size="11" lengthAdjust="spacing" textLength="11" x="532.6825" y="405.26">&#21542;</text><polygon fill="#F1F1F1" points="265.7095,431,337.6165,431,349.6165,443,337.6165,455,265.7095,455,253.7095,443,265.7095,431" style="stroke:#181818;stroke-width:0.5;"/><text fill="#000000" font-family="PingFang SC" font-size="11" lengthAdjust="spacing" textLength="71.907" x="265.7095" y="446.96">&#32593;&#32476;&#26381;&#21153;&#21551;&#21160;?</text><text fill="#000000" font-family="PingFang SC" font-size="11" lengthAdjust="spacing" textLength="11" x="242.7095" y="439.26">&#26159;</text><text fill="#000000" font-family="PingFang SC" font-size="11" lengthAdjust="spacing" textLength="11" x="349.6165" y="439.26">&#21542;</text><polygon fill="#F1F1F1" points="107.406,465,179.302,465,191.302,477,179.302,489,107.406,489,95.406,477,107.406,465" style="stroke:#181818;stroke-width:0.5;"/><text fill="#000000" font-family="PingFang SC" font-size="11" lengthAdjust="spacing" textLength="71.896" x="107.406" y="480.96">UART &#24050;&#21551;&#29992;?</text><text fill="#000000" font-family="PingFang SC" font-size="11" lengthAdjust="spacing" textLength="11" x="84.406" y="473.26">&#26159;</text><text fill="#000000" font-family="PingFang SC" font-size="11" lengthAdjust="spacing" textLength="11" x="191.302" y="473.26">&#21542;</text><rect fill="#F1F1F1" height="36.8" rx="12.5" ry="12.5" style="stroke:#181818;stroke-width:0.5;" width="104" x="11" y="499"/><text fill="#000000" font-family="PingFang SC" font-size="12" lengthAdjust="spacing" textLength="84" x="21" y="521.72">&#26816;&#26597;&#31471;&#21040;&#31471;&#28040;&#24687;</text><ellipse cx="63" cy="581.8" fill="none" rx="11" ry="11" style="stroke:#222222;stroke-width:1;"/><ellipse cx="63" cy="581.8" fill="#222222" rx="6" ry="6" style="stroke:#222222;stroke-width:1;"/><rect fill="#F1F1F1" height="36.8" rx="12.5" ry="12.5" style="stroke:#181818;stroke-width:0.5;" width="177.416" x="135" y="499"/><text fill="#000000" font-family="PingFang SC" font-size="12" lengthAdjust="spacing" textLength="157.416" x="145" y="521.72">&#22238;&#26597; uart_en / &#27874;&#29305;&#29575; / &#25509;&#32447;</text><ellipse cx="223.708" cy="581.8" fill="none" rx="11" ry="11" style="stroke:#222222;stroke-width:1;"/><ellipse cx="223.708" cy="581.8" fill="#222222" rx="6" ry="6" style="stroke:#222222;stroke-width:1;"/><rect fill="#F1F1F1" height="36.8" rx="12.5" ry="12.5" style="stroke:#181818;stroke-width:0.5;" width="235.112" x="342.416" y="465"/><text fill="#000000" font-family="PingFang SC" font-size="12" lengthAdjust="spacing" textLength="215.112" x="352.416" y="487.72">&#22238;&#26597; net_type / net_mode / net_target</text><ellipse cx="459.972" cy="547.8" fill="none" rx="11" ry="11" style="stroke:#222222;stroke-width:1;"/><ellipse cx="459.972" cy="547.8" fill="#222222" rx="6" ry="6" style="stroke:#222222;stroke-width:1;"/><rect fill="#F1F1F1" height="36.8" rx="12.5" ry="12.5" style="stroke:#181818;stroke-width:0.5;" width="143.48" x="597.8313" y="431"/><text fill="#000000" font-family="PingFang SC" font-size="12" lengthAdjust="spacing" textLength="123.48" x="607.8313" y="453.72">&#22238;&#26597; Wi-Fi &#37197;&#32622;&#19982;&#28909;&#28857;</text><ellipse cx="669.5713" cy="513.8" fill="none" rx="11" ry="11" style="stroke:#222222;stroke-width:1;"/><ellipse cx="669.5713" cy="513.8" fill="#222222" rx="6" ry="6" style="stroke:#222222;stroke-width:1;"/><rect fill="#F1F1F1" height="36.8" rx="12.5" ry="12.5" style="stroke:#181818;stroke-width:0.5;" width="162.308" x="755.706" y="397"/><text fill="#000000" font-family="PingFang SC" font-size="12" lengthAdjust="spacing" textLength="142.308" x="765.706" y="419.72">&#22238;&#26597; C5 &#26085;&#24535;&#19982; sdkconfig</text><ellipse cx="836.86" cy="479.8" fill="none" rx="11" ry="11" style="stroke:#222222;stroke-width:1;"/><ellipse cx="836.86" cy="479.8" fill="#222222" rx="6" ry="6" style="stroke:#222222;stroke-width:1;"/><rect fill="#F1F1F1" height="36.8" rx="12.5" ry="12.5" style="stroke:#181818;stroke-width:0.5;" width="213.764" x="928.014" y="363"/><text fill="#000000" font-family="PingFang SC" font-size="12" lengthAdjust="spacing" textLength="193.764" x="938.014" y="385.72">&#22238;&#26597; P4 &#21551;&#21160;&#26085;&#24535;&#19982; console &#21021;&#22987;&#21270;</text><ellipse cx="1034.896" cy="445.8" fill="none" rx="11" ry="11" style="stroke:#222222;stroke-width:1;"/><ellipse cx="1034.896" cy="445.8" fill="#222222" rx="6" ry="6" style="stroke:#222222;stroke-width:1;"/><rect fill="#F1F1F1" height="36.8" rx="12.5" ry="12.5" style="stroke:#181818;stroke-width:0.5;" width="165.356" x="1158.2425" y="272.2"/><text fill="#000000" font-family="PingFang SC" font-size="12" lengthAdjust="spacing" textLength="145.356" x="1168.2425" y="294.92">&#22238;&#26597;&#24037;&#20855;&#38142;&#12289;target &#21644;&#37197;&#32622;</text><ellipse cx="1240.9205" cy="340" fill="none" rx="11" ry="11" style="stroke:#222222;stroke-width:1;"/><ellipse cx="1240.9205" cy="340" fill="#222222" rx="6" ry="6" style="stroke:#222222;stroke-width:1;"/><rect fill="#F1F1F1" height="36.8" rx="12.5" ry="12.5" style="stroke:#181818;stroke-width:0.5;" width="136.424" x="1333.5986" y="181.4"/><text fill="#000000" font-family="PingFang SC" font-size="12" lengthAdjust="spacing" textLength="116.424" x="1343.5986" y="204.12">&#20808;&#21152;&#36733; ESP-IDF &#29615;&#22659;</text><ellipse cx="1401.8106" cy="249.2" fill="none" rx="11" ry="11" style="stroke:#222222;stroke-width:1;"/><ellipse cx="1401.8106" cy="249.2" fill="#222222" rx="6" ry="6" style="stroke:#222222;stroke-width:1;"/><line style="stroke:#181818;stroke-width:1;" x1="1225.99" x2="1225.99" y1="70.6" y2="90.6"/><polygon fill="#181818" points="1221.99,80.6,1225.99,90.6,1229.99,80.6,1225.99,84.6" style="stroke:#181818;stroke-width:1;"/><line style="stroke:#181818;stroke-width:1;" x1="63" x2="63" y1="535.8" y2="570.8"/><polygon fill="#181818" points="59,560.8,63,570.8,67,560.8,63,564.8" style="stroke:#181818;stroke-width:1;"/><line style="stroke:#181818;stroke-width:1;" x1="223.708" x2="223.708" y1="535.8" y2="570.8"/><polygon fill="#181818" points="219.708,560.8,223.708,570.8,227.708,560.8,223.708,564.8" style="stroke:#181818;stroke-width:1;"/><line style="stroke:#181818;stroke-width:1;" x1="95.406" x2="63" y1="477" y2="477"/><line style="stroke:#181818;stroke-width:1;" x1="63" x2="63" y1="477" y2="499"/><polygon fill="#181818" points="59,489,63,499,67,489,63,493" style="stroke:#181818;stroke-width:1;"/><line style="stroke:#181818;stroke-width:1;" x1="191.302" x2="223.708" y1="477" y2="477"/><line style="stroke:#181818;stroke-width:1;" x1="223.708" x2="223.708" y1="477" y2="499"/><polygon fill="#181818" points="219.708,489,223.708,499,227.708,489,223.708,493" style="stroke:#181818;stroke-width:1;"/><line style="stroke:#181818;stroke-width:1;" x1="459.972" x2="459.972" y1="501.8" y2="536.8"/><polygon fill="#181818" points="455.972,526.8,459.972,536.8,463.972,526.8,459.972,530.8" style="stroke:#181818;stroke-width:1;"/><line style="stroke:#181818;stroke-width:1;" x1="253.7095" x2="143.354" y1="443" y2="443"/><line style="stroke:#181818;stroke-width:1;" x1="143.354" x2="143.354" y1="443" y2="465"/><polygon fill="#181818" points="139.354,455,143.354,465,147.354,455,143.354,459" style="stroke:#181818;stroke-width:1;"/><line style="stroke:#181818;stroke-width:1;" x1="349.6165" x2="459.972" y1="443" y2="443"/><line style="stroke:#181818;stroke-width:1;" x1="459.972" x2="459.972" y1="443" y2="465"/><polygon fill="#181818" points="455.972,455,459.972,465,463.972,455,459.972,459" style="stroke:#181818;stroke-width:1;"/><line style="stroke:#181818;stroke-width:1;" x1="669.5713" x2="669.5713" y1="467.8" y2="502.8"/><polygon fill="#181818" points="665.5713,492.8,669.5713,502.8,673.5713,492.8,669.5713,496.8" style="stroke:#181818;stroke-width:1;"/><line style="stroke:#181818;stroke-width:1;" x1="448.2485" x2="301.663" y1="409" y2="409"/><line style="stroke:#181818;stroke-width:1;" x1="301.663" x2="301.663" y1="409" y2="431"/><polygon fill="#181818" points="297.663,421,301.663,431,305.663,421,301.663,425" style="stroke:#181818;stroke-width:1;"/><line style="stroke:#181818;stroke-width:1;" x1="532.6825" x2="669.5713" y1="409" y2="409"/><line style="stroke:#181818;stroke-width:1;" x1="669.5713" x2="669.5713" y1="409" y2="431"/><polygon fill="#181818" points="665.5713,421,669.5713,431,673.5713,421,669.5713,425" style="stroke:#181818;stroke-width:1;"/><line style="stroke:#181818;stroke-width:1;" x1="836.86" x2="836.86" y1="433.8" y2="468.8"/><polygon fill="#181818" points="832.86,458.8,836.86,468.8,840.86,458.8,836.86,462.8" style="stroke:#181818;stroke-width:1;"/><line style="stroke:#181818;stroke-width:1;" x1="598.528" x2="490.4655" y1="375" y2="375"/><line style="stroke:#181818;stroke-width:1;" x1="490.4655" x2="490.4655" y1="375" y2="397"/><polygon fill="#181818" points="486.4655,387,490.4655,397,494.4655,387,490.4655,391" style="stroke:#181818;stroke-width:1;"/><line style="stroke:#181818;stroke-width:1;" x1="734.706" x2="836.86" y1="375" y2="375"/><line style="stroke:#181818;stroke-width:1;" x1="836.86" x2="836.86" y1="375" y2="397"/><polygon fill="#181818" points="832.86,387,836.86,397,840.86,387,836.86,391" style="stroke:#181818;stroke-width:1;"/><line style="stroke:#181818;stroke-width:1;" x1="1034.896" x2="1034.896" y1="399.8" y2="434.8"/><polygon fill="#181818" points="1030.896,424.8,1034.896,434.8,1038.896,424.8,1034.896,428.8" style="stroke:#181818;stroke-width:1;"/><line style="stroke:#181818;stroke-width:1;" x1="801.8379" x2="666.617" y1="341" y2="341"/><line style="stroke:#181818;stroke-width:1;" x1="666.617" x2="666.617" y1="341" y2="363"/><polygon fill="#181818" points="662.617,353,666.617,363,670.617,353,666.617,357" style="stroke:#181818;stroke-width:1;"/><line style="stroke:#181818;stroke-width:1;" x1="904.0699" x2="1034.896" y1="341" y2="341"/><line style="stroke:#181818;stroke-width:1;" x1="1034.896" x2="1034.896" y1="341" y2="363"/><polygon fill="#181818" points="1030.896,353,1034.896,363,1038.896,353,1034.896,357" style="stroke:#181818;stroke-width:1;"/><line style="stroke:#181818;stroke-width:1;" x1="852.9539" x2="852.9539" y1="309" y2="329"/><polygon fill="#181818" points="848.9539,319,852.9539,329,856.9539,319,852.9539,323" style="stroke:#181818;stroke-width:1;"/><line style="stroke:#181818;stroke-width:1;" x1="1240.9205" x2="1240.9205" y1="309" y2="329"/><polygon fill="#181818" points="1236.9205,319,1240.9205,329,1244.9205,319,1240.9205,323" style="stroke:#181818;stroke-width:1;"/><line style="stroke:#181818;stroke-width:1;" x1="1006.7515" x2="852.9539" y1="250.2" y2="250.2"/><line style="stroke:#181818;stroke-width:1;" x1="852.9539" x2="852.9539" y1="250.2" y2="272.2"/><polygon fill="#181818" points="848.9539,262.2,852.9539,272.2,856.9539,262.2,852.9539,266.2" style="stroke:#181818;stroke-width:1;"/><line style="stroke:#181818;stroke-width:1;" x1="1080.6585" x2="1240.9205" y1="250.2" y2="250.2"/><line style="stroke:#181818;stroke-width:1;" x1="1240.9205" x2="1240.9205" y1="250.2" y2="272.2"/><polygon fill="#181818" points="1236.9205,262.2,1240.9205,272.2,1244.9205,262.2,1240.9205,266.2" style="stroke:#181818;stroke-width:1;"/><line style="stroke:#181818;stroke-width:1;" x1="1043.705" x2="1043.705" y1="218.2" y2="238.2"/><polygon fill="#181818" points="1039.705,228.2,1043.705,238.2,1047.705,228.2,1043.705,232.2" style="stroke:#181818;stroke-width:1;"/><line style="stroke:#181818;stroke-width:1;" x1="1401.8106" x2="1401.8106" y1="218.2" y2="238.2"/><polygon fill="#181818" points="1397.8106,228.2,1401.8106,238.2,1405.8106,228.2,1401.8106,232.2" style="stroke:#181818;stroke-width:1;"/><line style="stroke:#181818;stroke-width:1;" x1="1178.6195" x2="1043.705" y1="159.4" y2="159.4"/><line style="stroke:#181818;stroke-width:1;" x1="1043.705" x2="1043.705" y1="159.4" y2="181.4"/><polygon fill="#181818" points="1039.705,171.4,1043.705,181.4,1047.705,171.4,1043.705,175.4" style="stroke:#181818;stroke-width:1;"/><line style="stroke:#181818;stroke-width:1;" x1="1273.3605" x2="1401.8106" y1="159.4" y2="159.4"/><line style="stroke:#181818;stroke-width:1;" x1="1401.8106" x2="1401.8106" y1="159.4" y2="181.4"/><polygon fill="#181818" points="1397.8106,171.4,1401.8106,181.4,1405.8106,171.4,1401.8106,175.4" style="stroke:#181818;stroke-width:1;"/><line style="stroke:#181818;stroke-width:1;" x1="1225.99" x2="1225.99" y1="127.4" y2="147.4"/><polygon fill="#181818" points="1221.99,137.4,1225.99,147.4,1229.99,137.4,1225.99,141.4" style="stroke:#181818;stroke-width:1;"/><?plantuml-src XPFFRX9H5CRtynJ77LtGRkm65aPRcxXh_1ENn7G6l146qXaMtO68J2aCjDNMsbgb1I4nPHgDXQh0m-YvTtWBxt2PbXbeEel9pSdt_RwJUyxLYHvNuC4wKMF1T0gekKC_D-ZFB6jjuM5VkaFKjNXQLY2YlrGIoZn99-AIfEalrdKfn6fjkrs7XqzMWu-MLu2P5fxai6AnTwsmHA8G879qFhK1l4GtctQjT6yEE4Q50FrWpKa08VPdpxQsOVKkBC3IOfYN79ke3ZCVxK71Rt5CkIRstjljFjOBuL79CN46DPjeN63bNFGmRHNAfKN0SWNhRrZrBHwqi6fXiKNFJh7RdMKHfkSak4B07XppjcQhnhttjjdl8tfKnc9Da6zI2_sp-u-V0dQ-S-qDBRjVY9vc-6pODmkDS_wd5mRDMc6VIjEJAKz9YMiA1B3wTOg7XyUS1sa-omZFN03wuuHjNZApu9pD1lirk9skoYGgtPhcPgcA7j4tKWeFS8w9fEmU-KR55DsRvqlpPirCSdF4j8RvCkkr_tLDbZjZhoyduHxq97W6reNolQ7x3HpiSo9eygkrf1ebiMlg1FEQECLpQNnVnvjtnUH0BSbV8ngViBc5fJsNVKLskJxgc8cT1kOxmzt-tqnMt2VWJadSWa2DGGBZWOGmRs3nYzth-TwpOnpPHgR_?></g></svg>