<?plantuml 1.2026.2?><svg xmlns="http://www.w3.org/2000/svg" xmlns:xlink="http://www.w3.org/1999/xlink" contentStyleType="text/css" data-diagram-type="DESCRIPTION" height="470px" preserveAspectRatio="none" style="width:391px;height:470px;" version="1.1" viewBox="0 0 391 470" width="391px" zoomAndPan="magnify"><title>C5 &#20998;&#23618;&#22270;</title><defs/><g><g class="title" data-source-line="1"><text fill="#000000" font-family="PingFang SC" font-size="14" font-weight="bold" lengthAdjust="spacing" textLength="65.31" x="156.156" y="24.84">C5 &#20998;&#23618;&#22270;</text></g><!--entity Entry--><g class="entity" data-qualified-name="Entry" data-source-line="4" id="ent0002"><rect fill="#F1F1F1" height="59.2" rx="2.5" ry="2.5" style="stroke:#181818;stroke-width:0.5;" width="192.662" x="120.27" y="166.8"/><text fill="#000000" font-family="PingFang SC" font-size="14" lengthAdjust="spacing" textLength="84" x="130.27" y="191.64">&#39033;&#30446;&#23450;&#21046;&#20837;&#21475;</text><text fill="#000000" font-family="PingFang SC" font-size="14" lengthAdjust="spacing" textLength="172.662" x="130.27" y="211.24">esp_hosted_coprocessor.c</text></g><!--entity Control--><g class="entity" data-qualified-name="Control" data-source-line="5" id="ent0003"><rect fill="#F1F1F1" height="59.2" rx="2.5" ry="2.5" style="stroke:#181818;stroke-width:0.5;" width="211.198" x="7" y="286"/><text fill="#000000" font-family="PingFang SC" font-size="14" lengthAdjust="spacing" textLength="84" x="17" y="310.84">&#25511;&#21046;&#19982;&#33021;&#21147;&#23618;</text><text fill="#000000" font-family="PingFang SC" font-size="14" lengthAdjust="spacing" textLength="191.198" x="17" y="330.44">slave_control / slave_wifi_std</text></g><!--entity Transport--><g class="entity" data-qualified-name="Transport" data-source-line="6" id="ent0004"><rect fill="#F1F1F1" height="59.2" rx="2.5" ry="2.5" style="stroke:#181818;stroke-width:0.5;" width="132.042" x="253.58" y="286"/><text fill="#000000" font-family="PingFang SC" font-size="14" lengthAdjust="spacing" textLength="42" x="263.58" y="310.84">&#20256;&#36755;&#23618;</text><text fill="#000000" font-family="PingFang SC" font-size="14" lengthAdjust="spacing" textLength="112.042" x="263.58" y="330.44">sdio_slave_api &#31561;</text></g><!--entity Upstream--><g class="entity" data-qualified-name="Upstream" data-source-line="7" id="ent0005"><rect fill="#F1F1F1" height="59.2" rx="2.5" ry="2.5" style="stroke:#181818;stroke-width:0.5;" width="265.238" x="82.98" y="405.2"/><text fill="#000000" font-family="PingFang SC" font-size="14" lengthAdjust="spacing" textLength="70" x="92.98" y="430.04">&#19978;&#28216;&#22522;&#30784;&#23618;</text><text fill="#000000" font-family="PingFang SC" font-size="14" lengthAdjust="spacing" textLength="245.238" x="92.98" y="449.64">esp-hosted &#19982; managed_components</text></g><!--entity Config--><g class="entity" data-qualified-name="Config" data-source-line="8" id="ent0006"><rect fill="#F1F1F1" height="59.2" rx="2.5" ry="2.5" style="stroke:#181818;stroke-width:0.5;" width="161.12" x="136.04" y="47.6"/><text fill="#000000" font-family="PingFang SC" font-size="14" lengthAdjust="spacing" textLength="56" x="146.04" y="72.44">&#37197;&#32622;&#32422;&#26463;</text><text fill="#000000" font-family="PingFang SC" font-size="14" lengthAdjust="spacing" textLength="141.12" x="146.04" y="92.04">sdkconfig / partitions</text></g><!--link Entry to Control--><g class="link" data-entity-1="ent0002" data-entity-2="ent0003" data-link-type="dependency" data-source-line="10" id="lnk7"><path d="M190.89,226.37 C174.89,244.4 158.3614,263.0213 142.3514,281.0713" fill="none" id="Entry-to-Control" style="stroke:#181818;stroke-width:1;"/><polygon fill="#181818" points="138.37,285.56,147.3346,281.4812,141.6878,281.8194,141.3496,276.1727,138.37,285.56" style="stroke:#181818;stroke-width:1;"/></g><!--link Entry to Transport--><g class="link" data-entity-1="ent0002" data-entity-2="ent0004" data-link-type="dependency" data-source-line="11" id="lnk8"><path d="M242.06,226.37 C257.91,244.4 274.261,263.0015 290.111,281.0515" fill="none" id="Entry-to-Transport" style="stroke:#181818;stroke-width:1;"/><polygon fill="#181818" points="294.07,285.56,291.1372,276.1579,290.7709,281.8029,285.1259,281.4366,294.07,285.56" style="stroke:#181818;stroke-width:1;"/></g><!--link Control to Upstream--><g class="link" data-entity-1="ent0003" data-entity-2="ent0005" data-link-type="dependency" data-source-line="12" id="lnk9"><path d="M138.06,345.57 C153.91,363.6 170.261,382.2015 186.111,400.2515" fill="none" id="Control-to-Upstream" style="stroke:#181818;stroke-width:1;"/><polygon fill="#181818" points="190.07,404.76,187.1372,395.3579,186.7709,401.0029,181.1259,400.6366,190.07,404.76" style="stroke:#181818;stroke-width:1;"/></g><!--link Transport to Upstream--><g class="link" data-entity-1="ent0004" data-entity-2="ent0005" data-link-type="dependency" data-source-line="13" id="lnk10"><path d="M293.89,345.57 C277.89,363.6 261.3614,382.2213 245.3514,400.2713" fill="none" id="Transport-to-Upstream" style="stroke:#181818;stroke-width:1;"/><polygon fill="#181818" points="241.37,404.76,250.3346,400.6812,244.6878,401.0194,244.3496,395.3727,241.37,404.76" style="stroke:#181818;stroke-width:1;"/></g><!--link Config to Entry--><g class="link" data-entity-1="ent0006" data-entity-2="ent0002" data-link-type="dependency" data-source-line="14" id="lnk11"><path d="M216.6,107.17 C216.6,125.2 216.6,142.31 216.6,160.36" fill="none" id="Config-to-Entry" style="stroke:#181818;stroke-width:1;"/><polygon fill="#181818" points="216.6,166.36,220.6,157.36,216.6,161.36,212.6,157.36,216.6,166.36" style="stroke:#181818;stroke-width:1;"/></g><!--link Config to Control--><g class="link" data-entity-1="ent0006" data-entity-2="ent0003" data-link-type="dependency" data-source-line="15" id="lnk12"><path d="M160.08,107.22 C137.88,121.83 114.83,141.81 102.6,166.8 C84.06,204.69 91.6937,248.9318 100.7837,279.9718" fill="none" id="Config-to-Control" style="stroke:#181818;stroke-width:1;"/><polygon fill="#181818" points="102.47,285.73,103.7794,275.9686,101.0648,280.9315,96.1018,278.2169,102.47,285.73" style="stroke:#181818;stroke-width:1;"/></g><!--link Config to Transport--><g class="link" data-entity-1="ent0006" data-entity-2="ent0004" data-link-type="dependency" data-source-line="16" id="lnk13"><path d="M273.12,107.22 C295.31,121.83 318.37,141.81 330.6,166.8 C349.15,204.7 341.1573,248.957 331.7673,279.997" fill="none" id="Config-to-Transport" style="stroke:#181818;stroke-width:1;"/><polygon fill="#181818" points="330.03,285.74,336.4646,278.2838,331.4778,280.9542,328.8073,275.9673,330.03,285.74" style="stroke:#181818;stroke-width:1;"/></g><?plantuml-src LP2nJiCm54NtV8NfdZAnibJy0MoL8YjnMul4jknN41i25PLAb86D29KA0HEHM51QqNvDtPI_mDWqJKQVvtlVlGyen0Ir3f0UtkZFAvqklJtAmhWV4HH0ZoIaIVj9x7cIX81Prtnk_4ndHPhfx54Fl_JWLT-_j1bH8kXn1IGAGYua3ubIN3R31i8A7J6G5rM7zVZTQ5VvU7EzqAFKB6up5UCpOiJcBu_HFdBlSzgXWOB8-hJSiEgq-dxUB1-SGKHvu5HOK5Hyt5hHiSHC2IwX9ij7wppNatanlRHYazzt-P69XHBCSDTsIGHdX86oNYT2WIGugLrZS5SiicB-jdwQ_8KuDHKwj6iQ22o10kLCRTCRxdds6iZt3yi-Ex8B-p-pj5nRZklOELlcJbq1snqLLBhy0W00?></g></svg>