<?plantuml 1.2026.2?><svg xmlns="http://www.w3.org/2000/svg" xmlns:xlink="http://www.w3.org/1999/xlink" contentStyleType="text/css" data-diagram-type="DESCRIPTION" height="589px" preserveAspectRatio="none" style="background:#FFFFFF;width:574px;height:589px;" version="1.1" viewBox="0 0 574 589" width="574px" zoomAndPan="magnify"><title>C5 &#20998;&#23618;&#22270;</title><defs/><g><g class="title" data-source-line="1"><text fill="#000000" font-family="PingFang SC" font-size="14" font-weight="bold" lengthAdjust="spacing" textLength="65.31" x="247.671" y="24.84">C5 &#20998;&#23618;&#22270;</text></g><!--entity Entry--><g class="entity" data-qualified-name="Entry" data-source-line="4" id="ent0002"><rect fill="#F1F1F1" height="59.2" rx="2.5" ry="2.5" style="stroke:#181818;stroke-width:0.5;" width="260.422" x="235.54" y="166.8"/><text fill="#000000" font-family="PingFang SC" font-size="14" lengthAdjust="spacing" textLength="70" x="245.54" y="191.64">&#20027;&#21551;&#21160;&#20837;&#21475;</text><text fill="#000000" font-family="PingFang SC" font-size="14" lengthAdjust="spacing" textLength="240.422" x="245.54" y="211.24">upstream/esp_hosted_coprocessor.c</text></g><!--entity Product--><g class="entity" data-qualified-name="Product" data-source-line="5" id="ent0003"><rect fill="#F1F1F1" height="59.2" rx="2.5" ry="2.5" style="stroke:#181818;stroke-width:0.5;" width="308.148" x="37.67" y="286"/><text fill="#000000" font-family="PingFang SC" font-size="14" lengthAdjust="spacing" textLength="84" x="47.67" y="310.84">&#39033;&#30446;&#23450;&#21046;&#36793;&#30028;</text><text fill="#000000" font-family="PingFang SC" font-size="14" lengthAdjust="spacing" textLength="288.148" x="47.67" y="330.44">coprocessor_entry / feature_flags / Kconfig</text></g><!--entity Control--><g class="entity" data-qualified-name="Control" data-source-line="6" id="ent0004"><rect fill="#F1F1F1" height="59.2" rx="2.5" ry="2.5" style="stroke:#181818;stroke-width:0.5;" width="278.958" x="54.27" y="405.2"/><text fill="#000000" font-family="PingFang SC" font-size="14" lengthAdjust="spacing" textLength="84" x="64.27" y="430.04">&#25511;&#21046;&#19982;&#33021;&#21147;&#23618;</text><text fill="#000000" font-family="PingFang SC" font-size="14" lengthAdjust="spacing" textLength="258.958" x="64.27" y="449.64">upstream/slave_control / slave_wifi_std</text></g><!--entity Transport--><g class="entity" data-qualified-name="Transport" data-source-line="7" id="ent0005"><rect fill="#F1F1F1" height="59.2" rx="2.5" ry="2.5" style="stroke:#181818;stroke-width:0.5;" width="199.802" x="368.85" y="405.2"/><text fill="#000000" font-family="PingFang SC" font-size="14" lengthAdjust="spacing" textLength="42" x="378.85" y="430.04">&#20256;&#36755;&#23618;</text><text fill="#000000" font-family="PingFang SC" font-size="14" lengthAdjust="spacing" textLength="179.802" x="378.85" y="449.64">upstream/sdio_slave_api &#31561;</text></g><!--entity Upstream--><g class="entity" data-qualified-name="Upstream" data-source-line="8" id="ent0006"><rect fill="#F1F1F1" height="59.2" rx="2.5" ry="2.5" style="stroke:#181818;stroke-width:0.5;" width="181.672" x="239.91" y="524.4"/><text fill="#000000" font-family="PingFang SC" font-size="14" lengthAdjust="spacing" textLength="70" x="249.91" y="549.24">&#19978;&#28216;&#22522;&#30784;&#23618;</text><text fill="#000000" font-family="PingFang SC" font-size="14" lengthAdjust="spacing" textLength="161.672" x="249.91" y="568.84">esp-hosted &#19982; common/</text></g><!--entity Config--><g class="entity" data-qualified-name="Config" data-source-line="9" id="ent0007"><rect fill="#F1F1F1" height="59.2" rx="2.5" ry="2.5" style="stroke:#181818;stroke-width:0.5;" width="161.12" x="193.19" y="47.6"/><text fill="#000000" font-family="PingFang SC" font-size="14" lengthAdjust="spacing" textLength="56" x="203.19" y="72.44">&#37197;&#32622;&#32422;&#26463;</text><text fill="#000000" font-family="PingFang SC" font-size="14" lengthAdjust="spacing" textLength="141.12" x="203.19" y="92.04">sdkconfig / partitions</text></g><!--link Entry to Product--><g class="link" data-entity-1="ent0002" data-entity-2="ent0003" data-link-type="dependency" data-source-line="11" id="lnk8"><path d="M322.74,226.37 C295.97,244.4 266.636,264.1574 239.846,282.2074" fill="none" id="Entry-to-Product" style="stroke:#181818;stroke-width:1;"/><polygon fill="#181818" points="234.87,285.56,244.569,283.8484,239.0166,282.7662,240.0989,277.2138,234.87,285.56" style="stroke:#181818;stroke-width:1;"/></g><!--link Entry to Control--><g class="link" data-entity-1="ent0002" data-entity-2="ent0004" data-link-type="dependency" data-source-line="12" id="lnk9"><path d="M373.58,226.48 C380.36,258.17 385.95,309.15 363.75,345.2 C347.08,372.26 324.6141,388.9049 296.1941,402.3449" fill="none" id="Entry-to-Control" style="stroke:#181818;stroke-width:1;"/><polygon fill="#181818" points="290.77,404.91,300.6161,404.6784,295.29,402.7724,297.196,397.4464,290.77,404.91" style="stroke:#181818;stroke-width:1;"/></g><!--link Entry to Transport--><g class="link" data-entity-1="ent0002" data-entity-2="ent0005" data-link-type="dependency" data-source-line="13" id="lnk10"><path d="M388.29,226.43 C400.42,243.12 414.86,264.92 424.75,286 C443.22,325.39 454.6548,368.4759 461.5048,398.9659" fill="none" id="Entry-to-Transport" style="stroke:#181818;stroke-width:1;"/><polygon fill="#181818" points="462.82,404.82,464.7499,395.1621,461.724,399.9416,456.9445,396.9157,462.82,404.82" style="stroke:#181818;stroke-width:1;"/></g><!--link Product to Control--><g class="link" data-entity-1="ent0003" data-entity-2="ent0004" data-link-type="dependency" data-source-line="14" id="lnk11"><path d="M192.24,345.57 C192.55,363.6 192.837,380.7109 193.147,398.7609" fill="none" id="Product-to-Control" style="stroke:#181818;stroke-width:1;"/><polygon fill="#181818" points="193.25,404.76,197.0949,395.6926,193.1641,399.7607,189.096,395.83,193.25,404.76" style="stroke:#181818;stroke-width:1;"/></g><!--link Product to Transport--><g class="link" data-entity-1="ent0003" data-entity-2="ent0005" data-link-type="dependency" data-source-line="15" id="lnk12"><path d="M260.22,345.57 C302.83,363.6 351.9245,384.3715 394.5745,402.4215" fill="none" id="Product-to-Transport" style="stroke:#181818;stroke-width:1;"/><polygon fill="#181818" points="400.1,404.76,393.3707,397.5686,395.4954,402.8113,390.2527,404.936,400.1,404.76" style="stroke:#181818;stroke-width:1;"/></g><!--link Control to Upstream--><g class="link" data-entity-1="ent0004" data-entity-2="ent0006" data-link-type="dependency" data-source-line="16" id="lnk13"><path d="M227.61,464.77 C248.69,482.8 271.1406,502.0097 292.2406,520.0597" fill="none" id="Control-to-Upstream" style="stroke:#181818;stroke-width:1;"/><polygon fill="#181818" points="296.8,523.96,292.5612,515.07,293.0005,520.7098,287.3608,521.1491,296.8,523.96" style="stroke:#181818;stroke-width:1;"/></g><!--link Transport to Upstream--><g class="link" data-entity-1="ent0005" data-entity-2="ent0006" data-link-type="dependency" data-source-line="17" id="lnk14"><path d="M434.63,464.77 C413.4,482.8 390.7621,502.0246 369.5221,520.0746" fill="none" id="Transport-to-Upstream" style="stroke:#181818;stroke-width:1;"/><polygon fill="#181818" points="364.95,523.96,374.3984,521.18,368.7601,520.7222,369.2178,515.0839,364.95,523.96" style="stroke:#181818;stroke-width:1;"/></g><!--link Config to Entry--><g class="link" data-entity-1="ent0007" data-entity-2="ent0002" data-link-type="dependency" data-source-line="18" id="lnk15"><path d="M296.49,107.17 C310.64,125.2 325.075,143.5905 339.245,161.6405" fill="none" id="Config-to-Entry" style="stroke:#181818;stroke-width:1;"/><polygon fill="#181818" points="342.95,166.36,340.5389,156.8108,339.8625,162.4271,334.2462,161.7508,342.95,166.36" style="stroke:#181818;stroke-width:1;"/></g><!--link Config to Product--><g class="link" data-entity-1="ent0007" data-entity-2="ent0003" data-link-type="dependency" data-source-line="19" id="lnk16"><path d="M251.49,106.99 C239.71,123.62 226.01,145.41 217.75,166.8 C202.48,206.29 196.6322,249.2219 194.0222,279.6819" fill="none" id="Config-to-Product" style="stroke:#181818;stroke-width:1;"/><polygon fill="#181818" points="193.51,285.66,198.2638,277.0344,193.9369,280.6783,190.293,276.3514,193.51,285.66" style="stroke:#181818;stroke-width:1;"/></g><!--link Config to Control--><g class="link" data-entity-1="ent0007" data-entity-2="ent0004" data-link-type="dependency" data-source-line="20" id="lnk17"><path d="M213.57,107.17 C151.9,140.59 59.58,201.95 19.75,286 C8.48,309.78 6,322.77 19.75,345.2 C36.4,372.37 58.8439,388.9905 87.4639,402.3605" fill="none" id="Config-to-Control" style="stroke:#181818;stroke-width:1;"/><polygon fill="#181818" points="92.9,404.9,86.4389,397.4667,88.3699,402.7838,83.0529,404.7148,92.9,404.9" style="stroke:#181818;stroke-width:1;"/></g><!--link Config to Transport--><g class="link" data-entity-1="ent0007" data-entity-2="ent0005" data-link-type="dependency" data-source-line="21" id="lnk18"><path d="M354.73,84.81 C409.51,93.99 478.13,115.69 513.75,166.8 C564.94,240.27 517.9239,346.994 489.0239,399.484" fill="none" id="Config-to-Transport" style="stroke:#181818;stroke-width:1;"/><polygon fill="#181818" points="486.13,404.74,493.9748,398.7852,488.5415,400.36,486.9668,394.9268,486.13,404.74" style="stroke:#181818;stroke-width:1;"/></g><?plantuml-src NPAzJiCm58NtF8NftdPYPQcOM1XWgnHPZjDQ97PaEo0s12eg5HGan4A52aByB1IneBJGFatTbBV0ECqVupttti_d7baIwM7GM0UgUwe-ZjLWPgqHYhpGmS2MRUpZ6Wbzpx8uHXBIbXwkpAClTVMkUg-gywGk7viq38Ja6FfrB0AxpOJ4ZerOm1d2GZ1UGnK01TYaaXyMEJyFutWmKgDRrVrSpiRnpNcJ5jPi_BS0wi35K8OSswu7MqBNMuXHbxGCT9ip9qIoY5tqNpHm7lMN9rFL6-Yh2Ww51_UnDgVHpDEif3uWBh65T0ooaJHB5t_VBsVN_qWEONQo3WC2uhSpixt38HK1uxASM6yHHMeuYH-E34K7LKs20jeeGCpt6QqRmExgWL9IdOjuEeedpukxOPCAPoz9GFiF89T44aP5wbthbcMo1jNgHXPGhgJtvKhkUJLTcYjg-UIgQzJCSjOkouaheoMVe22a_WfI-d11oi2_?></g></svg>