<?plantuml 1.2026.2?><svg xmlns="http://www.w3.org/2000/svg" xmlns:xlink="http://www.w3.org/1999/xlink" contentStyleType="text/css" data-diagram-type="DESCRIPTION" height="596px" preserveAspectRatio="none" style="width:381px;height:596px;" version="1.1" viewBox="0 0 381 596" width="381px" zoomAndPan="magnify"><title>P4 &#27169;&#22359;&#20381;&#36182;&#22270;</title><defs/><g><g class="title" data-source-line="1"><text fill="#000000" font-family="PingFang SC" font-size="14" font-weight="bold" lengthAdjust="spacing" textLength="92.232" x="137.754" y="24.84">P4 &#27169;&#22359;&#20381;&#36182;&#22270;</text></g><!--cluster P4 Firmware--><g class="cluster" data-qualified-name="P4 Firmware" data-source-line="4" id="ent0002"><path d="M10.24,47.86 L95.142,47.86 A3.75,3.75 0 0 1 97.642,50.36 L104.642,73.46 L372.24,73.46 A2.5,2.5 0 0 1 374.74,75.96 L374.74,587.36 A2.5,2.5 0 0 1 372.24,589.86 L10.24,589.86 A2.5,2.5 0 0 1 7.74,587.36 L7.74,50.36 A2.5,2.5 0 0 1 10.24,47.86" fill="none" style="stroke:#000000;stroke-width:1.5;"/><line style="stroke:#000000;stroke-width:1.5;" x1="7.74" x2="104.642" y1="73.46" y2="73.46"/><text fill="#000000" font-family="PingFang SC" font-size="14" font-weight="bold" lengthAdjust="spacing" textLength="83.902" x="11.74" y="64.7">P4 Firmware</text></g><!--entity Main--><g class="entity" data-qualified-name="P4 Firmware.Main" data-source-line="5" id="ent0003"><rect fill="#F1F1F1" height="49.6" rx="2.5" ry="2.5" style="stroke:#181818;stroke-width:0.5;" width="82.56" x="44.46" y="85.86"/><rect fill="#F1F1F1" height="10" style="stroke:#181818;stroke-width:0.5;" width="15" x="107.02" y="90.86"/><rect fill="#F1F1F1" height="2" style="stroke:#181818;stroke-width:0.5;" width="4" x="105.02" y="92.86"/><rect fill="#F1F1F1" height="2" style="stroke:#181818;stroke-width:0.5;" width="4" x="105.02" y="96.86"/><text fill="#000000" font-family="PingFang SC" font-size="14" lengthAdjust="spacing" textLength="42.56" x="59.46" y="120.7">main.c</text></g><!--entity Wifi--><g class="entity" data-qualified-name="P4 Firmware.Wifi" data-source-line="6" id="ent0004"><rect fill="#F1F1F1" height="49.6" rx="2.5" ry="2.5" style="stroke:#181818;stroke-width:0.5;" width="94.194" x="52.64" y="524.26"/><rect fill="#F1F1F1" height="10" style="stroke:#181818;stroke-width:0.5;" width="15" x="126.834" y="529.26"/><rect fill="#F1F1F1" height="2" style="stroke:#181818;stroke-width:0.5;" width="4" x="124.834" y="531.26"/><rect fill="#F1F1F1" height="2" style="stroke:#181818;stroke-width:0.5;" width="4" x="124.834" y="535.26"/><text fill="#000000" font-family="PingFang SC" font-size="14" lengthAdjust="spacing" textLength="54.194" x="67.64" y="559.1">wifi_app</text></g><!--entity Console--><g class="entity" data-qualified-name="P4 Firmware.Console" data-source-line="7" id="ent0005"><rect fill="#F1F1F1" height="49.6" rx="2.5" ry="2.5" style="stroke:#181818;stroke-width:0.5;" width="121.256" x="122.11" y="195.46"/><rect fill="#F1F1F1" height="10" style="stroke:#181818;stroke-width:0.5;" width="15" x="223.366" y="200.46"/><rect fill="#F1F1F1" height="2" style="stroke:#181818;stroke-width:0.5;" width="4" x="221.366" y="202.46"/><rect fill="#F1F1F1" height="2" style="stroke:#181818;stroke-width:0.5;" width="4" x="221.366" y="206.46"/><text fill="#000000" font-family="PingFang SC" font-size="14" lengthAdjust="spacing" textLength="81.256" x="137.11" y="230.3">console_app</text></g><!--entity NetCmd--><g class="entity" data-qualified-name="P4 Firmware.NetCmd" data-source-line="8" id="ent0006"><rect fill="#F1F1F1" height="49.6" rx="2.5" ry="2.5" style="stroke:#181818;stroke-width:0.5;" width="126.688" x="232.4" y="414.66"/><rect fill="#F1F1F1" height="10" style="stroke:#181818;stroke-width:0.5;" width="15" x="339.088" y="419.66"/><rect fill="#F1F1F1" height="2" style="stroke:#181818;stroke-width:0.5;" width="4" x="337.088" y="421.66"/><rect fill="#F1F1F1" height="2" style="stroke:#181818;stroke-width:0.5;" width="4" x="337.088" y="425.66"/><text fill="#000000" font-family="PingFang SC" font-size="14" lengthAdjust="spacing" textLength="86.688" x="247.4" y="449.5">network_cmd</text></g><!--entity BridgeCmd--><g class="entity" data-qualified-name="P4 Firmware.BridgeCmd" data-source-line="9" id="ent0007"><rect fill="#F1F1F1" height="49.6" rx="2.5" ry="2.5" style="stroke:#181818;stroke-width:0.5;" width="115.978" x="122.75" y="305.06"/><rect fill="#F1F1F1" height="10" style="stroke:#181818;stroke-width:0.5;" width="15" x="218.728" y="310.06"/><rect fill="#F1F1F1" height="2" style="stroke:#181818;stroke-width:0.5;" width="4" x="216.728" y="312.06"/><rect fill="#F1F1F1" height="2" style="stroke:#181818;stroke-width:0.5;" width="4" x="216.728" y="316.06"/><text fill="#000000" font-family="PingFang SC" font-size="14" lengthAdjust="spacing" textLength="75.978" x="137.75" y="339.9">bridge_cmd</text></g><!--entity NetApp--><g class="entity" data-qualified-name="P4 Firmware.NetApp" data-source-line="10" id="ent0008"><rect fill="#F1F1F1" height="49.6" rx="2.5" ry="2.5" style="stroke:#181818;stroke-width:0.5;" width="123.09" x="208.2" y="524.26"/><rect fill="#F1F1F1" height="10" style="stroke:#181818;stroke-width:0.5;" width="15" x="311.29" y="529.26"/><rect fill="#F1F1F1" height="2" style="stroke:#181818;stroke-width:0.5;" width="4" x="309.29" y="531.26"/><rect fill="#F1F1F1" height="2" style="stroke:#181818;stroke-width:0.5;" width="4" x="309.29" y="535.26"/><text fill="#000000" font-family="PingFang SC" font-size="14" lengthAdjust="spacing" textLength="83.09" x="223.2" y="559.1">network_app</text></g><!--entity Bridge--><g class="entity" data-qualified-name="P4 Firmware.Bridge" data-source-line="11" id="ent0009"><rect fill="#F1F1F1" height="49.6" rx="2.5" ry="2.5" style="stroke:#181818;stroke-width:0.5;" width="136.796" x="60.34" y="414.66"/><rect fill="#F1F1F1" height="10" style="stroke:#181818;stroke-width:0.5;" width="15" x="177.136" y="419.66"/><rect fill="#F1F1F1" height="2" style="stroke:#181818;stroke-width:0.5;" width="4" x="175.136" y="421.66"/><rect fill="#F1F1F1" height="2" style="stroke:#181818;stroke-width:0.5;" width="4" x="175.136" y="425.66"/><text fill="#000000" font-family="PingFang SC" font-size="14" lengthAdjust="spacing" textLength="96.796" x="75.34" y="449.5">mavlink_bridge</text></g><!--link Main to Wifi--><g class="link" data-entity-1="ent0003" data-entity-2="ent0004" data-link-type="dependency" data-source-line="14" id="lnk10"><path d="M76.08,135.78 C54.29,193.75 6,344.91 42.74,464.26 C49.63,486.63 60.9282,503.7364 73.8682,519.4664" fill="none" id="Main-to-Wifi" style="stroke:#181818;stroke-width:1;"/><polygon fill="#181818" points="77.68,524.1,75.0514,514.6084,74.5035,520.2386,68.8733,519.6907,77.68,524.1" style="stroke:#181818;stroke-width:1;"/></g><!--link Main to Bridge--><g class="link" data-entity-1="ent0003" data-entity-2="ent0009" data-link-type="dependency" data-source-line="15" id="lnk11"><path d="M86.24,135.65 C87.48,179.47 91.7,275.25 105.74,354.66 C109.34,375.01 113.9038,391.8458 119.0138,408.4358" fill="none" id="Main-to-Bridge" style="stroke:#181818;stroke-width:1;"/><polygon fill="#181818" points="120.78,414.17,121.9534,404.3913,119.3082,409.3915,114.3079,406.7462,120.78,414.17" style="stroke:#181818;stroke-width:1;"/></g><!--link Main to Console--><g class="link" data-entity-1="ent0003" data-entity-2="ent0005" data-link-type="dependency" data-source-line="16" id="lnk12"><path d="M107.51,135.81 C123.48,153.53 141.0734,173.0327 157.0234,190.7327" fill="none" id="Main-to-Console" style="stroke:#181818;stroke-width:1;"/><polygon fill="#181818" points="161.04,195.19,157.9867,185.8264,157.6929,191.4756,152.0436,191.1818,161.04,195.19" style="stroke:#181818;stroke-width:1;"/></g><!--link Console to NetCmd--><g class="link" data-entity-1="ent0005" data-entity-2="ent0006" data-link-type="dependency" data-source-line="17" id="lnk13"><path d="M208.87,245.5 C224.42,261.17 243.44,282.76 255.74,305.06 C275.36,340.63 285.3188,381.0676 290.6288,408.7276" fill="none" id="Console-to-NetCmd" style="stroke:#181818;stroke-width:1;"/><polygon fill="#181818" points="291.76,414.62,293.9915,405.0273,290.8173,409.7097,286.1349,406.5355,291.76,414.62" style="stroke:#181818;stroke-width:1;"/></g><!--link Console to BridgeCmd--><g class="link" data-entity-1="ent0005" data-entity-2="ent0007" data-link-type="dependency" data-source-line="18" id="lnk14"><path d="M182.29,245.41 C181.96,263.13 181.6318,281.091 181.3018,298.791" fill="none" id="Console-to-BridgeCmd" style="stroke:#181818;stroke-width:1;"/><polygon fill="#181818" points="181.19,304.79,185.3571,295.8661,181.2832,299.7909,177.3585,295.717,181.19,304.79" style="stroke:#181818;stroke-width:1;"/></g><!--link NetCmd to NetApp--><g class="link" data-entity-1="ent0006" data-entity-2="ent0008" data-link-type="dependency" data-source-line="19" id="lnk15"><path d="M289.91,464.61 C285.62,482.33 281.2371,500.4573 276.9671,518.1573" fill="none" id="NetCmd-to-NetApp" style="stroke:#181818;stroke-width:1;"/><polygon fill="#181818" points="275.56,523.99,281.5591,516.179,276.7326,519.1294,273.7822,514.3029,275.56,523.99" style="stroke:#181818;stroke-width:1;"/></g><!--link BridgeCmd to Bridge--><g class="link" data-entity-1="ent0007" data-entity-2="ent0009" data-link-type="dependency" data-source-line="20" id="lnk16"><path d="M169.07,355.01 C160.51,372.73 151.5422,391.2885 142.9822,408.9885" fill="none" id="BridgeCmd-to-Bridge" style="stroke:#181818;stroke-width:1;"/><polygon fill="#181818" points="140.37,414.39,147.8894,408.0293,142.5469,409.8888,140.6874,404.5463,140.37,414.39" style="stroke:#181818;stroke-width:1;"/></g><!--link Bridge to Wifi--><g class="link" data-entity-1="ent0009" data-entity-2="ent0004" data-link-type="dependency" data-source-line="21" id="lnk17"><path d="M122.23,464.61 C117.46,482.33 112.5612,500.4967 107.7912,518.1967" fill="none" id="Bridge-to-Wifi" style="stroke:#181818;stroke-width:1;"/><polygon fill="#181818" points="106.23,523.99,112.4341,516.3409,107.531,519.1622,104.7097,514.2592,106.23,523.99" style="stroke:#181818;stroke-width:1;"/></g><!--link Bridge to NetApp--><g class="link" data-entity-1="ent0009" data-entity-2="ent0008" data-link-type="dependency" data-source-line="22" id="lnk18"><path d="M160.38,464.61 C183.6,482.33 210.2405,502.6497 233.4305,520.3497" fill="none" id="Bridge-to-NetApp" style="stroke:#181818;stroke-width:1;"/><polygon fill="#181818" points="238.2,523.99,233.4727,515.3498,234.2254,520.9564,228.6189,521.7091,238.2,523.99" style="stroke:#181818;stroke-width:1;"/></g><?plantuml-src JOwnRi8m48PtFyMLFKoTAz58R5JT650L6USQJh4TAnWoL7qDEbGPkl42h7cQ1l4On75YCft__x___5co4k7z6QxdlxR--M_gs-NK_ZRiYRIGXnGXiJjKEAU3aemPBdAU8Sownf9ALV4IP_3503QAavwB3-1xM7LFPrNqIGatfZVNdN2cAFI-a1Zys6iNQRHLKUQ9K6aVlQ6DLUgIRKbfXY5uxUMGZQtnODTQ6EEHZf9qdlZsfCc-6NEG44Kl7YoeOI7e4M-OlJTmJQq7aG_7FKSIika7VZm09jhNxW00?></g></svg>