<?plantuml 1.2026.2?><svg xmlns="http://www.w3.org/2000/svg" xmlns:xlink="http://www.w3.org/1999/xlink" contentStyleType="text/css" data-diagram-type="DESCRIPTION" height="706px" preserveAspectRatio="none" style="background:#FFFFFF;width:446px;height:706px;" version="1.1" viewBox="0 0 446 706" width="446px" zoomAndPan="magnify"><title>P4 &#27169;&#22359;&#20381;&#36182;&#22270;</title><defs/><g><g class="title" data-source-line="1"><text fill="#000000" font-family="PingFang SC" font-size="14" font-weight="bold" lengthAdjust="spacing" textLength="92.232" x="169.884" y="24.84">P4 &#27169;&#22359;&#20381;&#36182;&#22270;</text></g><!--cluster P4 Firmware--><g class="cluster" data-qualified-name="P4 Firmware" data-source-line="4" id="ent0002"><path d="M8.5,47.86 L93.402,47.86 A3.75,3.75 0 0 1 95.902,50.36 L102.902,73.46 L436.5,73.46 A2.5,2.5 0 0 1 439,75.96 L439,696.96 A2.5,2.5 0 0 1 436.5,699.46 L8.5,699.46 A2.5,2.5 0 0 1 6,696.96 L6,50.36 A2.5,2.5 0 0 1 8.5,47.86" fill="none" style="stroke:#000000;stroke-width:1.5;"/><line style="stroke:#000000;stroke-width:1.5;" x1="6" x2="102.902" y1="73.46" y2="73.46"/><text fill="#000000" font-family="PingFang SC" font-size="14" font-weight="bold" lengthAdjust="spacing" textLength="83.902" x="10" y="64.7">P4 Firmware</text></g><!--entity Main--><g class="entity" data-qualified-name="P4 Firmware.Main" data-source-line="5" id="ent0003"><rect fill="#F1F1F1" height="49.6" rx="2.5" ry="2.5" style="stroke:#181818;stroke-width:0.5;" width="82.56" x="194.72" y="85.86"/><rect fill="#F1F1F1" height="10" style="stroke:#181818;stroke-width:0.5;" width="15" x="257.28" y="90.86"/><rect fill="#F1F1F1" height="2" style="stroke:#181818;stroke-width:0.5;" width="4" x="255.28" y="92.86"/><rect fill="#F1F1F1" height="2" style="stroke:#181818;stroke-width:0.5;" width="4" x="255.28" y="96.86"/><text fill="#000000" font-family="PingFang SC" font-size="14" lengthAdjust="spacing" textLength="42.56" x="209.72" y="120.7">main.c</text></g><!--entity Boot--><g class="entity" data-qualified-name="P4 Firmware.Boot" data-source-line="6" id="ent0004"><rect fill="#F1F1F1" height="49.6" rx="2.5" ry="2.5" style="stroke:#181818;stroke-width:0.5;" width="112.17" x="179.91" y="195.46"/><rect fill="#F1F1F1" height="10" style="stroke:#181818;stroke-width:0.5;" width="15" x="272.08" y="200.46"/><rect fill="#F1F1F1" height="2" style="stroke:#181818;stroke-width:0.5;" width="4" x="270.08" y="202.46"/><rect fill="#F1F1F1" height="2" style="stroke:#181818;stroke-width:0.5;" width="4" x="270.08" y="206.46"/><text fill="#000000" font-family="PingFang SC" font-size="14" lengthAdjust="spacing" textLength="72.17" x="194.91" y="230.3">app_boot.c</text></g><!--entity Wifi--><g class="entity" data-qualified-name="P4 Firmware.Wifi" data-source-line="7" id="ent0005"><rect fill="#F1F1F1" height="49.6" rx="2.5" ry="2.5" style="stroke:#181818;stroke-width:0.5;" width="94.194" x="81.9" y="633.86"/><rect fill="#F1F1F1" height="10" style="stroke:#181818;stroke-width:0.5;" width="15" x="156.094" y="638.86"/><rect fill="#F1F1F1" height="2" style="stroke:#181818;stroke-width:0.5;" width="4" x="154.094" y="640.86"/><rect fill="#F1F1F1" height="2" style="stroke:#181818;stroke-width:0.5;" width="4" x="154.094" y="644.86"/><text fill="#000000" font-family="PingFang SC" font-size="14" lengthAdjust="spacing" textLength="54.194" x="96.9" y="668.7">wifi_app</text></g><!--entity Console--><g class="entity" data-qualified-name="P4 Firmware.Console" data-source-line="8" id="ent0006"><rect fill="#F1F1F1" height="49.6" rx="2.5" ry="2.5" style="stroke:#181818;stroke-width:0.5;" width="121.256" x="175.37" y="305.06"/><rect fill="#F1F1F1" height="10" style="stroke:#181818;stroke-width:0.5;" width="15" x="276.626" y="310.06"/><rect fill="#F1F1F1" height="2" style="stroke:#181818;stroke-width:0.5;" width="4" x="274.626" y="312.06"/><rect fill="#F1F1F1" height="2" style="stroke:#181818;stroke-width:0.5;" width="4" x="274.626" y="316.06"/><text fill="#000000" font-family="PingFang SC" font-size="14" lengthAdjust="spacing" textLength="81.256" x="190.37" y="339.9">console_app</text></g><!--entity NetCmd--><g class="entity" data-qualified-name="P4 Firmware.NetCmd" data-source-line="9" id="ent0007"><rect fill="#F1F1F1" height="49.6" rx="2.5" ry="2.5" style="stroke:#181818;stroke-width:0.5;" width="176.598" x="58.7" y="414.66"/><rect fill="#F1F1F1" height="10" style="stroke:#181818;stroke-width:0.5;" width="15" x="215.298" y="419.66"/><rect fill="#F1F1F1" height="2" style="stroke:#181818;stroke-width:0.5;" width="4" x="213.298" y="421.66"/><rect fill="#F1F1F1" height="2" style="stroke:#181818;stroke-width:0.5;" width="4" x="213.298" y="425.66"/><text fill="#000000" font-family="PingFang SC" font-size="14" lengthAdjust="spacing" textLength="136.598" x="73.7" y="449.5">network/command/*</text></g><!--entity BridgeCmd--><g class="entity" data-qualified-name="P4 Firmware.BridgeCmd" data-source-line="10" id="ent0008"><rect fill="#F1F1F1" height="49.6" rx="2.5" ry="2.5" style="stroke:#181818;stroke-width:0.5;" width="115.978" x="270.01" y="414.66"/><rect fill="#F1F1F1" height="10" style="stroke:#181818;stroke-width:0.5;" width="15" x="365.988" y="419.66"/><rect fill="#F1F1F1" height="2" style="stroke:#181818;stroke-width:0.5;" width="4" x="363.988" y="421.66"/><rect fill="#F1F1F1" height="2" style="stroke:#181818;stroke-width:0.5;" width="4" x="363.988" y="425.66"/><text fill="#000000" font-family="PingFang SC" font-size="14" lengthAdjust="spacing" textLength="75.978" x="285.01" y="449.5">bridge_cmd</text></g><!--entity NetApp--><g class="entity" data-qualified-name="P4 Firmware.NetApp" data-source-line="11" id="ent0009"><rect fill="#F1F1F1" height="49.6" rx="2.5" ry="2.5" style="stroke:#181818;stroke-width:0.5;" width="158.65" x="63.68" y="524.26"/><rect fill="#F1F1F1" height="10" style="stroke:#181818;stroke-width:0.5;" width="15" x="202.33" y="529.26"/><rect fill="#F1F1F1" height="2" style="stroke:#181818;stroke-width:0.5;" width="4" x="200.33" y="531.26"/><rect fill="#F1F1F1" height="2" style="stroke:#181818;stroke-width:0.5;" width="4" x="200.33" y="535.26"/><text fill="#000000" font-family="PingFang SC" font-size="14" lengthAdjust="spacing" textLength="118.65" x="78.68" y="559.1">network/service/*</text></g><!--entity Bridge--><g class="entity" data-qualified-name="P4 Firmware.Bridge" data-source-line="12" id="ent0010"><rect fill="#F1F1F1" height="49.6" rx="2.5" ry="2.5" style="stroke:#181818;stroke-width:0.5;" width="147.94" x="257.03" y="524.26"/><rect fill="#F1F1F1" height="10" style="stroke:#181818;stroke-width:0.5;" width="15" x="384.97" y="529.26"/><rect fill="#F1F1F1" height="2" style="stroke:#181818;stroke-width:0.5;" width="4" x="382.97" y="531.26"/><rect fill="#F1F1F1" height="2" style="stroke:#181818;stroke-width:0.5;" width="4" x="382.97" y="535.26"/><text fill="#000000" font-family="PingFang SC" font-size="14" lengthAdjust="spacing" textLength="107.94" x="272.03" y="559.1">bridge/service/*</text></g><!--entity Uart--><g class="entity" data-qualified-name="P4 Firmware.Uart" data-source-line="13" id="ent0011"><rect fill="#F1F1F1" height="49.6" rx="2.5" ry="2.5" style="stroke:#181818;stroke-width:0.5;" width="126.996" x="267.5" y="633.86"/><rect fill="#F1F1F1" height="10" style="stroke:#181818;stroke-width:0.5;" width="15" x="374.496" y="638.86"/><rect fill="#F1F1F1" height="2" style="stroke:#181818;stroke-width:0.5;" width="4" x="372.496" y="640.86"/><rect fill="#F1F1F1" height="2" style="stroke:#181818;stroke-width:0.5;" width="4" x="372.496" y="644.86"/><text fill="#000000" font-family="PingFang SC" font-size="14" lengthAdjust="spacing" textLength="86.996" x="282.5" y="668.7">uart_port.cpp</text></g><!--link Main to Boot--><g class="link" data-entity-1="ent0003" data-entity-2="ent0004" data-link-type="dependency" data-source-line="16" id="lnk12"><path d="M236,135.81 C236,153.53 236,171.49 236,189.19" fill="none" id="Main-to-Boot" style="stroke:#181818;stroke-width:1;"/><polygon fill="#181818" points="236,195.19,240,186.19,236,190.19,232,186.19,236,195.19" style="stroke:#181818;stroke-width:1;"/></g><!--link Boot to Wifi--><g class="link" data-entity-1="ent0004" data-entity-2="ent0005" data-link-type="dependency" data-source-line="17" id="lnk13"><path d="M197.39,245.33 C150.17,277.32 72.63,338.74 41,414.66 C31.01,438.65 31.57,540.93 46,573.86 C56.44,597.68 72.3285,614.6635 90.3485,629.5835" fill="none" id="Boot-to-Wifi" style="stroke:#181818;stroke-width:1;"/><polygon fill="#181818" points="94.97,633.41,90.5887,624.5893,91.1188,630.2213,85.4868,630.7513,94.97,633.41" style="stroke:#181818;stroke-width:1;"/></g><!--link Boot to Bridge--><g class="link" data-entity-1="ent0004" data-entity-2="ent0010" data-link-type="dependency" data-source-line="18" id="lnk14"><path d="M268.13,245.4 C308.92,278.35 377.11,341.71 403,414.66 C410.37,435.43 410.66,443.59 403,464.26 C394.4,487.46 380.5321,504.4192 364.5721,519.6392" fill="none" id="Boot-to-Bridge" style="stroke:#181818;stroke-width:1;"/><polygon fill="#181818" points="360.23,523.78,369.5037,520.4636,363.8484,520.3293,363.9826,514.6741,360.23,523.78" style="stroke:#181818;stroke-width:1;"/></g><!--link Boot to Console--><g class="link" data-entity-1="ent0004" data-entity-2="ent0006" data-link-type="dependency" data-source-line="19" id="lnk15"><path d="M236,245.41 C236,263.13 236,281.09 236,298.79" fill="none" id="Boot-to-Console" style="stroke:#181818;stroke-width:1;"/><polygon fill="#181818" points="236,304.79,240,295.79,236,299.79,232,295.79,236,304.79" style="stroke:#181818;stroke-width:1;"/></g><!--link Console to NetCmd--><g class="link" data-entity-1="ent0006" data-entity-2="ent0007" data-link-type="dependency" data-source-line="20" id="lnk16"><path d="M216.03,355.01 C201.37,372.73 185.3741,392.0666 170.7341,409.7666" fill="none" id="Console-to-NetCmd" style="stroke:#181818;stroke-width:1;"/><polygon fill="#181818" points="166.91,414.39,175.7285,410.0043,170.0968,410.5371,169.5639,404.9054,166.91,414.39" style="stroke:#181818;stroke-width:1;"/></g><!--link Console to BridgeCmd--><g class="link" data-entity-1="ent0006" data-entity-2="ent0008" data-link-type="dependency" data-source-line="21" id="lnk17"><path d="M256.65,355.01 C271.8,372.73 288.3914,392.1292 303.5214,409.8292" fill="none" id="Console-to-BridgeCmd" style="stroke:#181818;stroke-width:1;"/><polygon fill="#181818" points="307.42,414.39,304.6127,404.9497,304.1712,410.5893,298.5316,410.1478,307.42,414.39" style="stroke:#181818;stroke-width:1;"/></g><!--link NetCmd to NetApp--><g class="link" data-entity-1="ent0007" data-entity-2="ent0009" data-link-type="dependency" data-source-line="22" id="lnk18"><path d="M146.1,464.61 C145.44,482.33 144.7736,500.2942 144.1136,517.9942" fill="none" id="NetCmd-to-NetApp" style="stroke:#181818;stroke-width:1;"/><polygon fill="#181818" points="143.89,523.99,148.2226,515.1453,144.0763,518.9935,140.2281,514.8472,143.89,523.99" style="stroke:#181818;stroke-width:1;"/></g><!--link BridgeCmd to Bridge--><g class="link" data-entity-1="ent0008" data-entity-2="ent0010" data-link-type="dependency" data-source-line="23" id="lnk19"><path d="M328.67,464.61 C329.17,482.33 329.674,500.2923 330.164,517.9923" fill="none" id="BridgeCmd-to-Bridge" style="stroke:#181818;stroke-width:1;"/><polygon fill="#181818" points="330.33,523.99,334.0794,514.8828,330.1916,518.9919,326.0825,515.1041,330.33,523.99" style="stroke:#181818;stroke-width:1;"/></g><!--link Bridge to Wifi--><g class="link" data-entity-1="ent0010" data-entity-2="ent0005" data-link-type="dependency" data-source-line="24" id="lnk20"><path d="M285.42,574.34 C252.25,592.01 212.835,612.9982 179.715,630.6482" fill="none" id="Bridge-to-Wifi" style="stroke:#181818;stroke-width:1;"/><polygon fill="#181818" points="174.42,633.47,184.2438,632.7673,178.8325,631.1185,180.4814,625.7073,174.42,633.47" style="stroke:#181818;stroke-width:1;"/></g><!--link Bridge to Uart--><g class="link" data-entity-1="ent0010" data-entity-2="ent0011" data-link-type="dependency" data-source-line="25" id="lnk21"><path d="M331,574.21 C331,591.93 331,609.89 331,627.59" fill="none" id="Bridge-to-Uart" style="stroke:#181818;stroke-width:1;"/><polygon fill="#181818" points="331,633.59,335,624.59,331,628.59,327,624.59,331,633.59" style="stroke:#181818;stroke-width:1;"/></g><?plantuml-src NOyzJWCn48Lxds98YPIaeKQ2I7H4D8W28SknXs1b_IElboqGru02fQ3Z0hGv3K4S0u_NknjeF7xVcx7dHHqhXAiJ-FvutszVltRRdy-N_TkE7MahgqOXyFY01cUwCHLZNiYDM2DCqiI53gOL0IVmn01kZT1s9kz0r72PheI4ztpbN2puF5q9j_fUy-HbU9C4GUbixIeS-ABJP5cChGkRkNJ62AlcnxbXYN5X5FcheDKQkJIg-oRBulMpDOP7BN6SFVD-dFrdTo-GtOWGkNSXHIXxNIV2dXcZZ32TddQfwCWgnnbKUMZGVQXICoiv3j6Oe3FxFjfvyFvyaCl10gEcVNy1?></g></svg>