<?plantuml 1.2026.2?><svg xmlns="http://www.w3.org/2000/svg" xmlns:xlink="http://www.w3.org/1999/xlink" contentStyleType="text/css" data-diagram-type="ACTIVITY" height="532px" preserveAspectRatio="none" style="background:#FFFFFF;width:423px;height:532px;" version="1.1" viewBox="0 0 423 532" width="423px" zoomAndPan="magnify"><title>P4 &#21551;&#21160;&#27969;&#31243;&#22270;</title><defs/><rect id="codex-svg-bg" width="100%" height="100%" fill="#FFFFFF"/><g><g class="title" data-source-line="1"><text fill="#000000" font-family="PingFang SC" font-size="14" font-weight="bold" lengthAdjust="spacing" textLength="92.232" x="164.124" y="34.84">P4 &#21551;&#21160;&#27969;&#31243;&#22270;</text></g><ellipse cx="255.37" cy="60.6" fill="#222222" rx="10" ry="10" style="stroke:#222222;stroke-width:1;"/><rect fill="#F1F1F1" height="36.8" rx="12.5" ry="12.5" style="stroke:#181818;stroke-width:0.5;" width="101.516" x="204.612" y="90.6"/><text fill="#000000" font-family="PingFang SC" font-size="12" lengthAdjust="spacing" textLength="81.516" x="214.612" y="113.32">app_main &#21551;&#21160;</text><rect fill="#F1F1F1" height="36.8" rx="12.5" ry="12.5" style="stroke:#181818;stroke-width:0.5;" width="116" x="197.37" y="147.4"/><text fill="#000000" font-family="PingFang SC" font-size="12" lengthAdjust="spacing" textLength="96" x="207.37" y="170.12">&#24310;&#26102;&#31561;&#24453;&#30828;&#20214;&#31283;&#23450;</text><rect fill="#F1F1F1" height="36.8" rx="12.5" ry="12.5" style="stroke:#181818;stroke-width:0.5;" width="97.556" x="206.592" y="204.2"/><text fill="#000000" font-family="PingFang SC" font-size="12" lengthAdjust="spacing" textLength="77.556" x="216.592" y="226.92">wifi_app_init()</text><polygon fill="#F1F1F1" points="208.653,261,302.087,261,314.087,273,302.087,285,208.653,285,196.653,273,208.653,261" style="stroke:#181818;stroke-width:0.5;"/><text fill="#000000" font-family="PingFang SC" font-size="11" lengthAdjust="spacing" textLength="93.434" x="208.653" y="276.96">Wi-Fi &#21021;&#22987;&#21270;&#25104;&#21151;?</text><text fill="#000000" font-family="PingFang SC" font-size="11" lengthAdjust="spacing" textLength="11" x="185.653" y="269.26">&#26159;</text><text fill="#000000" font-family="PingFang SC" font-size="11" lengthAdjust="spacing" textLength="11" x="314.087" y="269.26">&#21542;</text><rect fill="#F1F1F1" height="36.8" rx="12.5" ry="12.5" style="stroke:#181818;stroke-width:0.5;" width="86.372" x="108.814" y="295"/><text fill="#000000" font-family="PingFang SC" font-size="12" lengthAdjust="spacing" textLength="66.372" x="118.814" y="317.72">init_bridge()</text><polygon fill="#F1F1F1" points="105.0465,351.8,198.9535,351.8,210.9535,363.8,198.9535,375.8,105.0465,375.8,93.0465,363.8,105.0465,351.8" style="stroke:#181818;stroke-width:0.5;"/><text fill="#000000" font-family="PingFang SC" font-size="11" lengthAdjust="spacing" textLength="93.907" x="105.0465" y="367.76">&#26725;&#25509;&#22120;&#21021;&#22987;&#21270;&#25104;&#21151;?</text><text fill="#000000" font-family="PingFang SC" font-size="11" lengthAdjust="spacing" textLength="11" x="82.0465" y="360.06">&#26159;</text><text fill="#000000" font-family="PingFang SC" font-size="11" lengthAdjust="spacing" textLength="11" x="210.9535" y="360.06">&#21542;</text><rect fill="#F1F1F1" height="36.8" rx="12.5" ry="12.5" style="stroke:#181818;stroke-width:0.5;" width="120.752" x="20.624" y="385.8"/><text fill="#000000" font-family="PingFang SC" font-size="12" lengthAdjust="spacing" textLength="100.752" x="30.624" y="408.52">console_app_init()</text><rect fill="#F1F1F1" height="36.8" rx="12.5" ry="12.5" style="stroke:#181818;stroke-width:0.5;" width="140" x="11" y="442.6"/><text fill="#000000" font-family="PingFang SC" font-size="12" lengthAdjust="spacing" textLength="120" x="21" y="465.32">&#25511;&#21046;&#21488;&#36827;&#20837;&#21487;&#20132;&#20114;&#29366;&#24577;</text><ellipse cx="81" cy="510.4" fill="none" rx="11" ry="11" style="stroke:#222222;stroke-width:1;"/><ellipse cx="81" cy="510.4" fill="#222222" rx="6" ry="6" style="stroke:#222222;stroke-width:1;"/><rect fill="#F1F1F1" height="36.8" rx="12.5" ry="12.5" style="stroke:#181818;stroke-width:0.5;" width="104" x="171" y="385.8"/><text fill="#000000" font-family="PingFang SC" font-size="12" lengthAdjust="spacing" textLength="84" x="181" y="408.52">&#25171;&#21360;&#26725;&#25509;&#22120;&#38169;&#35823;</text><ellipse cx="223" cy="453.6" fill="none" rx="11" ry="11" style="stroke:#222222;stroke-width:1;"/><ellipse cx="223" cy="453.6" fill="#222222" rx="6" ry="6" style="stroke:#222222;stroke-width:1;"/><rect fill="#F1F1F1" height="36.8" rx="12.5" ry="12.5" style="stroke:#181818;stroke-width:0.5;" width="107.48" x="305" y="295"/><text fill="#000000" font-family="PingFang SC" font-size="12" lengthAdjust="spacing" textLength="87.48" x="315" y="317.72">&#25171;&#21360; Wi-Fi &#38169;&#35823;</text><ellipse cx="358.74" cy="362.8" fill="none" rx="11" ry="11" style="stroke:#222222;stroke-width:1;"/><ellipse cx="358.74" cy="362.8" fill="#222222" rx="6" ry="6" style="stroke:#222222;stroke-width:1;"/><line style="stroke:#181818;stroke-width:1;" x1="255.37" x2="255.37" y1="70.6" y2="90.6"/><polygon fill="#181818" points="251.37,80.6,255.37,90.6,259.37,80.6,255.37,84.6" style="stroke:#181818;stroke-width:1;"/><line style="stroke:#181818;stroke-width:1;" x1="255.37" x2="255.37" y1="127.4" y2="147.4"/><polygon fill="#181818" points="251.37,137.4,255.37,147.4,259.37,137.4,255.37,141.4" style="stroke:#181818;stroke-width:1;"/><line style="stroke:#181818;stroke-width:1;" x1="255.37" x2="255.37" y1="184.2" y2="204.2"/><polygon fill="#181818" points="251.37,194.2,255.37,204.2,259.37,194.2,255.37,198.2" style="stroke:#181818;stroke-width:1;"/><line style="stroke:#181818;stroke-width:1;" x1="81" x2="81" y1="422.6" y2="442.6"/><polygon fill="#181818" points="77,432.6,81,442.6,85,432.6,81,436.6" style="stroke:#181818;stroke-width:1;"/><line style="stroke:#181818;stroke-width:1;" x1="81" x2="81" y1="479.4" y2="499.4"/><polygon fill="#181818" points="77,489.4,81,499.4,85,489.4,81,493.4" style="stroke:#181818;stroke-width:1;"/><line style="stroke:#181818;stroke-width:1;" x1="223" x2="223" y1="422.6" y2="442.6"/><polygon fill="#181818" points="219,432.6,223,442.6,227,432.6,223,436.6" style="stroke:#181818;stroke-width:1;"/><line style="stroke:#181818;stroke-width:1;" x1="93.0465" x2="81" y1="363.8" y2="363.8"/><line style="stroke:#181818;stroke-width:1;" x1="81" x2="81" y1="363.8" y2="385.8"/><polygon fill="#181818" points="77,375.8,81,385.8,85,375.8,81,379.8" style="stroke:#181818;stroke-width:1;"/><line style="stroke:#181818;stroke-width:1;" x1="210.9535" x2="223" y1="363.8" y2="363.8"/><line style="stroke:#181818;stroke-width:1;" x1="223" x2="223" y1="363.8" y2="385.8"/><polygon fill="#181818" points="219,375.8,223,385.8,227,375.8,223,379.8" style="stroke:#181818;stroke-width:1;"/><line style="stroke:#181818;stroke-width:1;" x1="152" x2="152" y1="331.8" y2="351.8"/><polygon fill="#181818" points="148,341.8,152,351.8,156,341.8,152,345.8" style="stroke:#181818;stroke-width:1;"/><line style="stroke:#181818;stroke-width:1;" x1="358.74" x2="358.74" y1="331.8" y2="351.8"/><polygon fill="#181818" points="354.74,341.8,358.74,351.8,362.74,341.8,358.74,345.8" style="stroke:#181818;stroke-width:1;"/><line style="stroke:#181818;stroke-width:1;" x1="196.653" x2="152" y1="273" y2="273"/><line style="stroke:#181818;stroke-width:1;" x1="152" x2="152" y1="273" y2="295"/><polygon fill="#181818" points="148,285,152,295,156,285,152,289" style="stroke:#181818;stroke-width:1;"/><line style="stroke:#181818;stroke-width:1;" x1="314.087" x2="358.74" y1="273" y2="273"/><line style="stroke:#181818;stroke-width:1;" x1="358.74" x2="358.74" y1="273" y2="295"/><polygon fill="#181818" points="354.74,285,358.74,295,362.74,285,358.74,289" style="stroke:#181818;stroke-width:1;"/><line style="stroke:#181818;stroke-width:1;" x1="255.37" x2="255.37" y1="241" y2="261"/><polygon fill="#181818" points="251.37,251,255.37,261,259.37,251,255.37,255" style="stroke:#181818;stroke-width:1;"/><?plantuml-src XS-zJi9G50Vm_Jx5SMi7dPnWS7DsSsoGNlGafMte9Quoa9IYqAXHaHX38j81BOcn0oJuCZst-1QsfT5qSZl9__pEXq1XS3ZQ1_93yWBvsKc2FetNR0VDkj7MEMZYZ3Vv7hQR1cEEgBK4gzHiMslMq2nKbLLe5SdxA7dhqRgRJERnAag23tf_JADpRA2M2JHHA6gLOGEKOzmzH23tYMPzkhoJha_Uyu4AwJ8J5FaGgWoWaWdjf8NwASyWG4RbP2e7Kne5_-ZKrotJiGnUsfu7SZ0ZDwBXOlCrfkwKXc6yV8cNruaNoOlEjiaHbfqMt70uAEI_5ZDbxuQk5hz7VD-EDc5O5gQE3LPoXOBjstyc5td_3m00?></g></svg>