<?plantuml 1.2026.2?><svg xmlns="http://www.w3.org/2000/svg" xmlns:xlink="http://www.w3.org/1999/xlink" contentStyleType="text/css" data-diagram-type="DESCRIPTION" height="410px" preserveAspectRatio="none" style="width:469px;height:410px;" version="1.1" viewBox="0 0 469 410" width="469px" zoomAndPan="magnify"><title>&#31995;&#32479;&#20851;&#31995;&#22270;</title><defs/><g><g class="title" data-source-line="1"><text fill="#000000" font-family="PingFang SC" font-size="14" font-weight="bold" lengthAdjust="spacing" textLength="70" x="192.9285" y="24.84">&#31995;&#32479;&#20851;&#31995;&#22270;</text></g><!--entity PC--><g class="entity" data-qualified-name="PC" data-source-line="5" id="ent0002"><ellipse cx="172.673" cy="54.6" fill="#F1F1F1" rx="8" ry="8" style="stroke:#181818;stroke-width:0.5;"/><path d="M172.673,62.6 L172.673,89.6 M159.673,70.6 L185.673,70.6 M172.673,89.6 L159.673,104.6 M172.673,89.6 L185.673,104.6" fill="none" style="stroke:#181818;stroke-width:0.5;"/><text fill="#000000" font-family="PingFang SC" font-size="14" lengthAdjust="spacing" textLength="97.146" x="124.1" y="120.94">PC / Simulator</text></g><!--entity GCS--><g class="entity" data-qualified-name="GCS" data-source-line="6" id="ent0003"><ellipse cx="312.673" cy="54.6" fill="#F1F1F1" rx="8" ry="8" style="stroke:#181818;stroke-width:0.5;"/><path d="M312.673,62.6 L312.673,89.6 M299.673,70.6 L325.673,70.6 M312.673,89.6 L299.673,104.6 M312.673,89.6 L325.673,104.6" fill="none" style="stroke:#181818;stroke-width:0.5;"/><text fill="#000000" font-family="PingFang SC" font-size="14" lengthAdjust="spacing" textLength="98.546" x="263.4" y="120.94">Ground Station</text></g><!--entity P4--><g class="entity" data-qualified-name="P4" data-source-line="7" id="ent0004"><rect fill="#F1F1F1" height="59.2" rx="2.5" ry="2.5" style="stroke:#181818;stroke-width:0.5;" width="104" x="190.68" y="205.7"/><text fill="#000000" font-family="PingFang SC" font-size="14" lengthAdjust="spacing" textLength="69.412" x="200.68" y="230.54">ESP32-P4</text><text fill="#000000" font-family="PingFang SC" font-size="14" lengthAdjust="spacing" textLength="84" x="200.68" y="250.14">&#20027;&#25511;&#26725;&#25509;&#31243;&#24207;</text></g><!--entity C5--><g class="entity" data-qualified-name="C5" data-source-line="8" id="ent0005"><rect fill="#F1F1F1" height="59.2" rx="2.5" ry="2.5" style="stroke:#181818;stroke-width:0.5;" width="104" x="41.68" y="344.9"/><text fill="#000000" font-family="PingFang SC" font-size="14" lengthAdjust="spacing" textLength="70.616" x="51.68" y="369.74">ESP32-C5</text><text fill="#000000" font-family="PingFang SC" font-size="14" lengthAdjust="spacing" textLength="84" x="51.68" y="389.34">&#26080;&#32447;&#21327;&#22788;&#29702;&#22120;</text></g><!--entity FC--><g class="entity" data-qualified-name="FC" data-source-line="9" id="ent0006"><rect fill="#F1F1F1" height="59.2" rx="2.5" ry="2.5" style="stroke:#181818;stroke-width:0.5;" width="124.608" x="313.37" y="344.9"/><text fill="#000000" font-family="PingFang SC" font-size="14" lengthAdjust="spacing" textLength="104.608" x="323.37" y="369.74">Flight Controller</text><text fill="#000000" font-family="PingFang SC" font-size="14" lengthAdjust="spacing" textLength="28" x="323.37" y="389.34">&#39134;&#25511;</text></g><!--link PC to P4--><g class="link" data-entity-1="ent0002" data-entity-2="ent0004" data-link-type="dependency" data-source-line="11" id="lnk7"><path d="M163.65,126.12 C161.87,142.19 162.41,160.54 169.68,175.7 C175.16,187.13 179.4997,193.1543 189.2497,201.4043" fill="none" id="PC-to-P4" style="stroke:#181818;stroke-width:1;"/><polygon fill="#181818" points="193.83,205.28,189.5433,196.413,190.0131,202.0503,184.3758,202.5201,193.83,205.28" style="stroke:#181818;stroke-width:1;"/><text fill="#000000" font-family="PingFang SC" font-size="13" lengthAdjust="spacing" textLength="98.15" x="170.68" y="170.48">UDP / TCP &#25968;&#25454;</text></g><!--link GCS to P4--><g class="link" data-entity-1="ent0003" data-entity-2="ent0004" data-link-type="dependency" data-source-line="12" id="lnk8"><path d="M296.2,126.08 C289.47,141.64 281.44,159.63 273.68,175.7 C268.97,185.44 266.3603,190.6342 261.3703,200.0042" fill="none" id="GCS-to-P4" style="stroke:#181818;stroke-width:1;"/><polygon fill="#181818" points="258.55,205.3,266.311,199.2364,260.9003,200.8868,259.2499,195.476,258.55,205.3" style="stroke:#181818;stroke-width:1;"/><text fill="#000000" font-family="PingFang SC" font-size="13" lengthAdjust="spacing" textLength="91" x="283.71" y="170.48">&#30417;&#25511;&#25110;&#25511;&#21046;&#25968;&#25454;</text></g><!--link P4 to FC--><g class="link" data-entity-1="ent0004" data-entity-2="ent0006" data-link-type="dependency" data-source-line="13" id="lnk9"><path d="M270.88,265.4 C293.45,288.68 320.7745,316.8613 343.3345,340.1413" fill="none" id="P4-to-FC" style="stroke:#181818;stroke-width:1;"/><polygon fill="#181818" points="347.51,344.45,344.1193,335.2032,344.0304,340.8594,338.3743,340.7705,347.51,344.45" style="stroke:#181818;stroke-width:1;"/><text fill="#000000" font-family="PingFang SC" font-size="13" lengthAdjust="spacing" textLength="64.987" x="318.14" y="309.68">UART &#36716;&#21457;</text></g><!--link FC to P4--><g class="link" data-entity-1="ent0006" data-entity-2="ent0004" data-link-type="dependency" data-source-line="14" id="lnk10"><path d="M390.42,344.46 C396.24,328.62 399.48,309.36 389.68,294.9 C368.63,263.86 334.115,250.4783 300.985,243.6083" fill="none" id="FC-to-P4" style="stroke:#181818;stroke-width:1;"/><polygon fill="#181818" points="295.11,242.39,303.1103,248.1341,300.0058,243.4052,304.7347,240.3007,295.11,242.39" style="stroke:#181818;stroke-width:1;"/><text fill="#000000" font-family="PingFang SC" font-size="13" lengthAdjust="spacing" textLength="64.987" x="396.87" y="309.68">UART &#22238;&#20256;</text></g><!--link P4 to C5--><g class="link" data-entity-1="ent0004" data-entity-2="ent0005" data-link-type="dependency" data-source-line="15" id="lnk11"><path d="M190.34,242.69 C131.17,251.11 40.36,268.07 19.68,294.9 C6,312.64 16.3509,327.434 36.4609,341.914" fill="none" id="P4-to-C5" style="stroke:#181818;stroke-width:1;"/><polygon fill="#181818" points="41.33,345.42,36.3636,336.915,37.2724,342.4984,31.689,343.4071,41.33,345.42" style="stroke:#181818;stroke-width:1;"/><text fill="#000000" font-family="PingFang SC" font-size="13" lengthAdjust="spacing" textLength="99.775" x="20.68" y="309.68">SDIO &#20027;&#25511;&#20391;&#35775;&#38382;</text></g><!--link C5 to P4--><g class="link" data-entity-1="ent0005" data-entity-2="ent0004" data-link-type="dependency" data-source-line="16" id="lnk12"><path d="M122.52,344.7 C137.81,329.64 157.04,311.03 174.68,294.9 C185.49,285.01 192.9783,278.3992 203.8883,269.0292" fill="none" id="C5-to-P4" style="stroke:#181818;stroke-width:1;"/><polygon fill="#181818" points="208.44,265.12,199.0063,267.9493,204.6469,268.3777,204.2186,274.0183,208.44,265.12" style="stroke:#181818;stroke-width:1;"/><text fill="#000000" font-family="PingFang SC" font-size="13" lengthAdjust="spacing" textLength="117" x="175.68" y="309.68">&#26080;&#32447;&#33021;&#21147;&#19982;&#38142;&#36335;&#25903;&#25745;</text></g><?plantuml-src POzFIm916CRlyoacxnQKNZe4CRRIgQMrcn33DkZYxgoiiuVE_K4ADVidiM16YHv20w54Kx_CpkxwBPhLDA7ByCxx_9xdVL-cCPr0lpVqXy_yeYSAxep1caPLtJuXy9XbYK7MDTlGGI6dqJosi07pMCtX357OgV1QH6MOPdG205QPQS68ZE06L3J3rh7uHo0kG1ajnAHbslG4AWmppQGpCOaKi4o1aJr5tjgCoh4qTVj3hzpoNffUkUcth_cWCW-B_STHF4szMiCVJ7Yfmj_E_PjB_jIUuIY-YakwbiaoY4pAB5FNYPMcqzUw63DZ9GI0M3yQtH5Ju3OyIiZYbXIIeVVmuPKwGEpwf_fEDTol-2XUNlpyHOGK4X8A_Rk7AHYCtdcb2gJLtB3FdRhxtLZmA2xwIcB_0CxFTiUje3EPrZf0A4lZ_CRWRCIl7BTVdjwDWw-kTz_rRgi_?></g></svg>